<?xml version="1.0" encoding="utf-8" standalone="no"?>
<!-- Generated by Therion 6.2.1 (2024-03-20) -->
<!-- Author: Paweł Krawczyk -->
<!-- Title: Marina pećina, Montenegro -->
<!DOCTYPE svg PUBLIC "-//W3C//DTD SVG 1.1//EN" "http://www.w3.org/Graphics/SVG/1.1/DTD/svg11.dtd">
<svg width="20.203cm" height="22.285cm" viewBox="-66.181 -209.757 572.693 631.693" xmlns="http://www.w3.org/2000/svg" xmlns:xlink="http://www.w3.org/1999/xlink">
<defs>
<g id="F_aaaaaaa_output/marina.svg">
<g>
<clipPath id="clip_1_output/marina.svg">
  <path d="M476.090 334.240C467.690 333.280 466.250 328.000 463.850 328.480C461.450 328.960 457.140 321.760 457.140 321.760C457.140 321.760 449.460 314.550 445.620 316.950C441.780 319.350 444.660 318.870 435.530 325.590C426.410 332.310 414.890 353.910 405.770 357.270C396.650 360.620 388.960 372.140 380.320 381.740C371.680 391.340 370.240 401.420 364.960 403.340C359.680 405.260 346.720 408.610 338.560 414.850C330.390 421.090 314.550 435.970 314.070 442.690C313.590 449.410 318.390 466.210 316.950 473.890C315.510 481.570 317.430 493.090 313.590 500.290C309.750 507.490 280.390 498.610 280.950 505.570C282.150 520.450 267.040 514.690 267.040 514.690C267.040 514.690 261.760 514.210 261.280 507.010C260.420 494.150 269.920 495.730 269.920 495.730C269.920 495.730 269.920 488.290 271.360 483.970C272.800 479.650 272.800 474.370 267.520 471.970C262.240 469.570 249.760 462.850 249.760 462.850C249.760 462.850 242.090 456.130 240.650 454.210C239.210 452.280 232.010 447.960 228.170 447.490C224.330 447.010 208.020 432.610 201.780 429.250C195.550 425.890 186.910 417.250 180.190 415.810C173.470 414.370 140.840 404.780 140.840 404.780C140.840 404.780 120.200 406.220 109.160 407.180C98.120 408.140 87.560 401.900 87.560 401.900C87.560 401.900 45.310 375.010 40.510 374.530C35.710 374.050 8.830 365.410 4.990 366.370C1.150 367.330 -10.380 369.730 -7.500 378.850C-15.020 357.247 -22.540 335.643 -30.060 314.040C-30.060 314.040 -3.650 311.160 -2.210 308.280C-0.770 305.400 23.230 301.080 18.430 294.360C13.630 287.640 2.110 289.560 -3.170 284.280C-3.170 284.280 -3.170 284.280 -3.170 284.280C-8.450 279.000 -8.930 285.240 -11.810 288.120C-13.090 286.680 -14.370 285.240 -15.650 283.800C-15.650 283.800 -11.330 281.400 -10.850 278.520C-10.850 278.520 -10.850 278.520 -10.850 278.520C-10.370 275.640 -19.970 263.630 -18.530 256.430C-17.090 249.230 -7.490 237.710 -8.930 231.950C-8.930 231.950 -8.930 231.950 -8.930 231.950C-10.370 226.190 -16.610 223.790 -16.610 223.790C-15.010 221.390 -13.410 218.990 -11.810 216.590C-11.810 216.590 -8.450 220.430 -4.130 220.910C-4.130 220.910 -4.130 220.910 -4.130 220.910C0.190 221.390 4.030 220.910 6.430 217.550C8.830 214.190 26.120 189.700 29.000 183.460C31.880 177.220 35.720 164.260 39.080 157.060C42.440 149.860 49.160 131.130 53.000 128.730C56.850 126.330 72.690 99.930 78.450 97.050C84.210 94.170 127.900 41.360 127.900 41.360C127.900 41.360 135.110 35.600 140.390 33.200C145.670 30.800 185.040 -17.200 188.880 -21.040C192.720 -24.880 207.600 -34.950 214.320 -40.710C221.040 -46.470 235.450 -61.350 241.210 -55.110C246.970 -48.870 249.370 -48.390 255.130 -35.430C260.880 -22.470 249.840 -16.230 246.960 -12.390C244.080 -8.550 237.360 -2.790 240.240 4.410C243.120 11.610 236.880 1.530 247.440 17.860C258.000 34.180 249.830 42.340 246.470 47.620C243.110 52.900 215.260 86.980 209.020 92.260C209.020 92.260 209.020 92.260 209.020 92.260C202.780 97.540 195.090 112.410 183.570 122.970C172.060 133.530 157.660 162.340 147.580 172.900C147.580 172.900 147.580 172.900 147.580 172.900C137.500 183.470 128.370 189.230 125.010 195.950C121.650 202.670 125.010 209.390 125.970 211.790C126.930 214.190 122.610 218.510 133.650 221.870C144.690 225.230 148.530 225.710 158.130 227.150C167.730 228.590 177.330 237.230 181.650 238.190C185.960 239.150 195.560 239.140 207.080 236.260C218.590 233.380 267.550 230.990 274.750 232.430C281.950 233.880 293.470 235.320 299.710 237.240C305.950 239.160 360.190 235.330 376.510 240.140C392.830 244.940 436.980 285.750 442.260 290.550C447.540 295.350 470.100 306.400 472.020 308.800C473.940 311.200 479.700 324.640 478.740 326.560C478.740 326.560 478.740 326.560 478.740 326.560C477.770 328.480 481.610 333.280 484.490 337.120C484.090 338.080 483.690 339.040 483.290 340.000C483.290 340.000 478.970 335.200 476.090 334.240C476.090 334.240 476.090 334.240 476.090 334.240" />
</clipPath>
<g clip-path="url(#clip_1_output/marina.svg)">
<path fill="none" stroke="#000000" stroke-width="0.350" d="M18.430 294.360L19.599 295.983" />
<path fill="none" stroke="#000000" stroke-width="0.350" d="M20.460 292.893L21.634 294.512" />
<path fill="none" stroke="#000000" stroke-width="0.350" d="M22.487 291.421L23.664 293.038" />
<path fill="none" stroke="#000000" stroke-width="0.350" d="M24.510 289.945L25.691 291.559" />
<path fill="none" stroke="#000000" stroke-width="0.350" d="M26.530 288.463L27.716 290.073" />
<path fill="none" stroke="#000000" stroke-width="0.350" d="M28.544 286.973L29.736 288.578" />
<path fill="none" stroke="#000000" stroke-width="0.350" d="M30.548 285.472L31.753 287.068" />
<path fill="none" stroke="#000000" stroke-width="0.350" d="M32.534 283.945L33.768 285.520" />
<path fill="none" stroke="#000000" stroke-width="0.350" d="M34.457 282.341L35.767 283.852" />
<path fill="none" stroke="#000000" stroke-width="0.350" d="M36.346 280.696L37.661 282.202" />
<path fill="none" stroke="#000000" stroke-width="0.350" d="M38.233 279.049L39.547 280.557" />
<path fill="none" stroke="#000000" stroke-width="0.350" d="M40.124 277.406L41.433 278.918" />
<path fill="none" stroke="#000000" stroke-width="0.350" d="M42.021 275.770L43.323 277.288" />
<path fill="none" stroke="#000000" stroke-width="0.350" d="M43.927 274.145L45.219 275.671" />
<path fill="none" stroke="#000000" stroke-width="0.350" d="M45.845 272.535L47.124 274.073" />
<path fill="none" stroke="#000000" stroke-width="0.350" d="M47.782 270.947L49.040 272.502" />
<path fill="none" stroke="#000000" stroke-width="0.350" d="M49.748 269.395L50.970 270.979" />
<path fill="none" stroke="#000000" stroke-width="0.350" d="M51.772 267.920L52.905 269.569" />
<path fill="none" stroke="#000000" stroke-width="0.350" d="M54.007 266.825L54.858 268.635" />
<path fill="none" stroke="#000000" stroke-width="0.350" d="M56.127 265.500L57.308 267.114" />
<path fill="none" stroke="#000000" stroke-width="0.350" d="M58.125 263.988L59.347 265.571" />
<path fill="none" stroke="#000000" stroke-width="0.350" d="M60.109 262.460L61.322 264.051" />
<path fill="none" stroke="#000000" stroke-width="0.350" d="M62.115 260.960L63.297 262.574" />
<path fill="none" stroke="#000000" stroke-width="0.350" d="M64.157 259.510L65.295 261.155" />
<path fill="none" stroke="#000000" stroke-width="0.350" d="M66.243 258.124L67.327 259.805" />
<path fill="none" stroke="#000000" stroke-width="0.350" d="M68.379 256.815L69.399 258.535" />
<path fill="none" stroke="#000000" stroke-width="0.350" d="M70.566 255.594L71.516 257.355" />
<path fill="none" stroke="#000000" stroke-width="0.350" d="M72.795 254.452L73.727 256.221" />
<path fill="none" stroke="#000000" stroke-width="0.350" d="M74.999 253.263L75.980 255.006" />
<path fill="none" stroke="#000000" stroke-width="0.350" d="M77.171 252.015L78.192 253.735" />
<path fill="none" stroke="#000000" stroke-width="0.350" d="M79.315 250.720L80.367 252.421" />
<path fill="none" stroke="#000000" stroke-width="0.350" d="M81.437 249.389L82.512 251.076" />
<path fill="none" stroke="#000000" stroke-width="0.350" d="M83.543 248.034L84.632 249.712" />
<path fill="none" stroke="#000000" stroke-width="0.350" d="M85.643 246.667L86.734 248.343" />
<path fill="none" stroke="#000000" stroke-width="0.350" d="M87.745 245.305L88.826 246.988" />
<path fill="none" stroke="#000000" stroke-width="0.350" d="M89.863 243.969L90.915 245.670" />
<path fill="none" stroke="#000000" stroke-width="0.350" d="M92.017 242.690L93.009 244.427" />
<path fill="none" stroke="#000000" stroke-width="0.350" d="M94.233 241.525L95.111 243.322" />
<path fill="none" stroke="#000000" stroke-width="0.350" d="M96.533 240.535L97.304 242.380" />
<path fill="none" stroke="#000000" stroke-width="0.350" d="M98.844 239.567L99.618 241.412" />
<path fill="none" stroke="#000000" stroke-width="0.350" d="M101.153 238.596L101.930 240.439" />
<path fill="none" stroke="#000000" stroke-width="0.350" d="M103.460 237.621L104.240 239.463" />
<path fill="none" stroke="#000000" stroke-width="0.350" d="M105.765 236.641L106.550 238.481" />
<path fill="none" stroke="#000000" stroke-width="0.350" d="M108.068 235.655L108.857 237.493" />
<path fill="none" stroke="#000000" stroke-width="0.350" d="M110.367 234.662L111.163 236.496" />
<path fill="none" stroke="#000000" stroke-width="0.350" d="M112.662 233.658L113.467 235.489" />
<path fill="none" stroke="#000000" stroke-width="0.350" d="M114.950 232.639L115.770 234.462" />
<path fill="none" stroke="#000000" stroke-width="0.350" d="M117.248 231.644L117.999 233.497" />
<path fill="none" stroke="#000000" stroke-width="0.350" d="M119.578 230.724L120.292 232.592" />
<path fill="none" stroke="#000000" stroke-width="0.350" d="M121.922 229.841L122.615 231.717" />
<path fill="none" stroke="#000000" stroke-width="0.350" d="M124.275 228.982L124.953 230.864" />
<path fill="none" stroke="#000000" stroke-width="0.350" d="M126.634 228.140L127.301 230.026" />
<path fill="none" stroke="#000000" stroke-width="0.350" d="M128.998 227.311L129.655 229.200" />
<path fill="none" stroke="#000000" stroke-width="0.350" d="M131.365 226.493L132.014 228.385" />
<path fill="none" stroke="#000000" stroke-width="0.350" d="M133.736 225.686L134.377 227.580" />
<path fill="none" stroke="#000000" stroke-width="0.350" d="M136.128 225.514L135.593 227.441" />
<path fill="none" stroke="#000000" stroke-width="0.350" d="M138.538 226.194L137.986 228.116" />
<path fill="none" stroke="#000000" stroke-width="0.350" d="M140.943 226.894L140.375 228.812" />
<path fill="none" stroke="#000000" stroke-width="0.350" d="M143.342 227.615L142.758 229.528" />
<path fill="none" stroke="#000000" stroke-width="0.350" d="M145.735 228.358L145.132 230.265" />
<path fill="none" stroke="#000000" stroke-width="0.350" d="M148.118 229.125L147.495 231.026" />
<path fill="none" stroke="#000000" stroke-width="0.350" d="M150.493 229.923L149.844 231.815" />
<path fill="none" stroke="#000000" stroke-width="0.350" d="M152.854 230.757L152.174 232.638" />
<path fill="none" stroke="#000000" stroke-width="0.350" d="M155.198 231.641L154.474 233.505" />
<path fill="none" stroke="#000000" stroke-width="0.350" d="M157.515 232.594L156.727 234.433" />
<path fill="none" stroke="#000000" stroke-width="0.350" d="M159.780 233.661L158.883 235.448" />
<path fill="none" stroke="#000000" stroke-width="0.350" d="M161.944 234.922L160.906 236.631" />
<path fill="none" stroke="#000000" stroke-width="0.350" d="M164.093 236.207L163.088 237.936" />
<path fill="none" stroke="#000000" stroke-width="0.350" d="M166.277 237.434L165.334 239.198" />
<path fill="none" stroke="#000000" stroke-width="0.350" d="M168.515 238.557L167.674 240.372" />
<path fill="none" stroke="#000000" stroke-width="0.350" d="M170.824 239.528L170.113 241.397" />
<path fill="none" stroke="#000000" stroke-width="0.350" d="M173.196 240.331L172.608 242.243" />
<path fill="none" stroke="#000000" stroke-width="0.350" d="M175.609 240.999L175.110 242.936" />
<path fill="none" stroke="#000000" stroke-width="0.350" d="M178.057 241.527L177.725 243.499" />
<path fill="none" stroke="#000000" stroke-width="0.350" d="M180.538 241.868L180.338 243.858" />
<path fill="none" stroke="#000000" stroke-width="0.350" d="M183.036 242.051L182.946 244.049" />
<path fill="none" stroke="#000000" stroke-width="0.350" d="M185.540 242.107L185.536 244.107" />
<path fill="none" stroke="#000000" stroke-width="0.350" d="M188.044 242.073L188.091 244.072" />
<path fill="none" stroke="#000000" stroke-width="0.350" d="M190.548 242.017L190.791 244.002" />
<path fill="none" stroke="#000000" stroke-width="0.350" d="M192.990 241.472L193.553 243.391" />
<path fill="none" stroke="#000000" stroke-width="0.350" d="M195.378 240.717L196.019 242.612" />
<path fill="none" stroke="#000000" stroke-width="0.350" d="M197.742 239.889L198.422 241.770" />
<path fill="none" stroke="#000000" stroke-width="0.350" d="M200.091 239.020L200.797 240.891" />
<path fill="none" stroke="#000000" stroke-width="0.350" d="M202.429 238.123L203.155 239.986" />
<path fill="none" stroke="#000000" stroke-width="0.350" d="M204.759 237.202L205.501 239.059" />
<path fill="none" stroke="#000000" stroke-width="0.350" d="M207.080 236.260L207.844 238.108" />
<path fill="none" stroke="#000000" stroke-width="0.500" d="M18.430 294.360C18.430 294.360 30.430 285.720 33.310 283.320C36.200 280.920 51.080 267.480 53.480 267.000C55.880 266.520 62.120 259.800 71.720 255.000C81.320 250.200 89.490 243.470 95.250 241.070C101.010 238.670 110.130 234.830 115.410 232.430C120.690 230.030 135.090 225.230 135.090 225.230C135.090 225.230 154.770 230.510 161.010 234.350C167.250 238.190 170.130 239.630 175.890 241.070C181.650 242.510 187.400 242.030 190.280 242.030C193.160 242.030 207.080 236.260 207.080 236.260" />
<path fill="none" stroke="#000000" stroke-width="0.350" d="M186.001 250.037L181.252 249.334" />
<path fill="none" stroke="#000000" stroke-width="0.350" d="M184.929 257.278L183.347 257.044" />
<path fill="none" stroke="#000000" stroke-width="0.350" d="M183.857 264.516L179.108 263.813" />
<path fill="none" stroke="#000000" stroke-width="0.350" d="M182.785 271.757L181.203 271.523" />
<path fill="none" stroke="#000000" stroke-width="0.350" d="M181.712 278.998L176.964 278.295" />
<path fill="none" stroke="#000000" stroke-width="0.350" d="M180.640 286.239L179.059 286.004" />
<path fill="none" stroke="#000000" stroke-width="0.350" d="M179.569 293.477L174.820 292.774" />
<path fill="none" stroke="#000000" stroke-width="0.350" d="M178.496 300.718L176.915 300.484" />
<path fill="none" stroke="#000000" stroke-width="0.350" d="M177.424 307.959L172.676 307.255" />
<path fill="none" stroke="#000000" stroke-width="0.350" d="M176.352 315.199L174.771 314.965" />
<path fill="none" stroke="#000000" stroke-width="0.350" d="M175.280 322.438L170.532 321.735" />
<path fill="none" stroke="#000000" stroke-width="0.350" d="M174.208 329.678L172.627 329.444" />
<path fill="none" stroke="#000000" stroke-width="0.350" d="M173.136 336.919L168.388 336.216" />
<path fill="none" stroke="#000000" stroke-width="0.350" d="M172.064 344.160L170.483 343.926" />
<path fill="none" stroke="#000000" stroke-width="0.350" d="M170.992 351.401L166.243 350.698" />
<path fill="none" stroke="#000000" stroke-width="0.350" d="M169.920 358.639L168.339 358.405" />
<path fill="none" stroke="#000000" stroke-width="0.350" d="M168.848 365.880L164.099 365.177" />
<path fill="none" stroke="#000000" stroke-width="0.350" d="M167.776 373.121L166.195 372.886" />
<path fill="none" stroke="#000000" stroke-width="0.350" d="M166.704 380.361L161.955 379.658" />
<path fill="none" stroke="#000000" stroke-width="0.350" d="M165.632 387.600L164.051 387.366" />
<path fill="none" stroke="#000000" stroke-width="0.350" d="M164.560 394.841L159.811 394.137" />
<path fill="none" stroke="#000000" stroke-width="0.350" d="M301.040 368.287L296.990 362.334" />
<path fill="none" stroke="#000000" stroke-width="0.350" d="M294.515 372.726L293.166 370.743" />
<path fill="none" stroke="#000000" stroke-width="0.350" d="M287.990 377.165L283.940 371.211" />
<path fill="none" stroke="#000000" stroke-width="0.350" d="M281.465 381.604L280.116 379.621" />
<path fill="none" stroke="#000000" stroke-width="0.350" d="M274.940 386.042L270.890 380.089" />
<path fill="none" stroke="#000000" stroke-width="0.350" d="M268.415 390.481L267.066 388.499" />
<path fill="none" stroke="#000000" stroke-width="0.350" d="M261.891 394.919L257.841 388.966" />
<path fill="none" stroke="#000000" stroke-width="0.350" d="M255.366 399.358L254.018 397.376" />
<path fill="none" stroke="#000000" stroke-width="0.350" d="M248.841 403.797L244.791 397.844" />
<path fill="none" stroke="#000000" stroke-width="0.350" d="M242.316 408.236L240.968 406.253" />
<path fill="none" stroke="#000000" stroke-width="0.350" d="M235.791 412.674L231.741 406.721" />
<path fill="none" stroke="#000000" stroke-width="0.350" d="M229.266 417.113L227.918 415.131" />
<path fill="none" stroke="#000000" stroke-width="0.350" d="M222.741 421.552L218.691 415.599" />
<path fill="none" stroke="#000000" stroke-width="0.350" d="M319.228 255.355L314.435 255.096" />
<path fill="none" stroke="#000000" stroke-width="0.350" d="M318.833 262.657L317.237 262.571" />
<path fill="none" stroke="#000000" stroke-width="0.350" d="M318.439 269.958L313.646 269.699" />
<path fill="none" stroke="#000000" stroke-width="0.350" d="M318.044 277.259L316.448 277.173" />
<path fill="none" stroke="#000000" stroke-width="0.350" d="M317.649 284.561L312.856 284.302" />
<path fill="none" stroke="#000000" stroke-width="0.350" d="M317.255 291.863L315.659 291.777" />
<path fill="none" stroke="#000000" stroke-width="0.350" d="M316.860 299.165L312.067 298.906" />
<path fill="none" stroke="#000000" stroke-width="0.350" d="M316.465 306.465L314.869 306.379" />
<path fill="none" stroke="#000000" stroke-width="0.350" d="M316.071 313.767L311.278 313.508" />
<path fill="none" stroke="#000000" stroke-width="0.350" d="M315.676 321.069L314.080 320.983" />
<path fill="none" stroke="#000000" stroke-width="0.350" d="M315.281 328.371L310.488 328.112" />
<path fill="none" stroke="#000000" stroke-width="0.350" d="M314.887 335.673L313.291 335.587" />
<path fill="none" stroke="#000000" stroke-width="0.350" d="M314.492 342.973L309.699 342.714" />
<path fill="none" stroke="#000000" stroke-width="0.350" d="M83.759 114.171L79.532 120.000" />
<path fill="none" stroke="#000000" stroke-width="0.350" d="M89.729 118.499L88.322 120.440" />
<path fill="none" stroke="#000000" stroke-width="0.350" d="M95.701 122.828L91.475 128.658" />
<path fill="none" stroke="#000000" stroke-width="0.350" d="M101.672 127.157L100.264 129.098" />
<path fill="none" stroke="#000000" stroke-width="0.350" d="M107.643 131.486L103.417 137.315" />
<path fill="none" stroke="#000000" stroke-width="0.350" d="M113.615 135.815L112.208 137.756" />
<path fill="none" stroke="#000000" stroke-width="0.350" d="M119.586 140.143L115.359 145.973" />
<path fill="none" stroke="#000000" stroke-width="0.350" d="M125.557 144.473L124.150 146.414" />
<path fill="none" stroke="#000000" stroke-width="0.350" d="M131.528 148.801L127.302 154.631" />
<path fill="none" stroke="#000000" stroke-width="0.350" d="M137.500 153.130L136.092 155.071" />
<path fill="none" stroke="#000000" stroke-width="0.350" d="M143.470 157.459L139.244 163.288" />
<path fill="none" stroke="#000000" stroke-width="0.350" d="M158.631 33.079L154.312 38.841" />
<path fill="none" stroke="#000000" stroke-width="0.350" d="M165.319 38.091L163.881 40.010" />
<path fill="none" stroke="#000000" stroke-width="0.350" d="M172.008 43.105L167.690 48.866" />
<path fill="none" stroke="#000000" stroke-width="0.350" d="M178.696 48.117L177.258 50.036" />
<path fill="none" stroke="#000000" stroke-width="0.350" d="M185.385 53.130L181.067 58.892" />
<path fill="none" stroke="#000000" stroke-width="0.350" d="M192.073 58.142L190.635 60.061" />
<path fill="none" stroke="#000000" stroke-width="0.350" d="M198.761 63.155L194.443 68.917" />
<path fill="none" stroke="#000000" stroke-width="0.350" d="M205.450 68.168L204.012 70.087" />
<path fill="none" stroke="#000000" stroke-width="0.350" d="M212.139 73.180L207.820 78.942" />
<path fill="none" stroke="#000000" stroke-width="0.500" d="M282.870 487.570L285.270 484.210L289.350 485.410L290.550 489.970L286.230 492.130L282.870 487.570" />
<path fill="none" stroke="#000000" stroke-width="0.500" d="M303.183 408.050C303.758 407.770 303.713 407.554 303.951 407.622C304.460 407.718 305.262 408.255 305.635 408.467C306.176 408.531 306.347 408.872 306.504 409.476C306.683 409.797 306.685 409.893 306.883 410.291C306.548 410.365 305.906 410.705 305.813 410.342C305.061 410.649 304.789 410.204 304.321 410.097C303.939 409.643 303.586 409.372 303.456 408.964C303.359 408.663 303.199 408.076 303.183 408.050Z" />
<path fill="none" stroke="#000000" stroke-width="0.500" d="M300.991 405.111C301.264 405.008 301.460 404.710 302.015 405.162C302.480 405.204 302.690 405.201 303.132 405.551C303.889 405.869 304.236 405.729 304.432 406.081C304.699 406.871 304.694 406.811 304.512 407.208C304.539 407.338 304.020 407.847 304.067 407.519C303.336 407.484 302.781 407.300 302.120 407.191C301.746 406.844 301.498 406.433 301.167 405.998C301.089 406.043 301.067 405.909 300.991 405.111Z" />
<path fill="none" stroke="#000000" stroke-width="0.500" d="M299.134 402.259C299.337 401.938 299.600 401.892 299.848 401.911C300.340 402.124 300.664 402.023 301.432 402.591C301.671 402.472 302.352 402.755 302.591 403.526C302.691 403.682 302.997 403.816 302.900 404.113C302.499 404.574 302.200 404.814 302.094 404.521C301.556 404.642 300.751 404.414 300.698 404.156C300.089 403.996 299.496 403.592 299.084 403.496C299.012 403.083 298.641 402.869 299.134 402.259Z" />
<path fill="none" stroke="#000000" stroke-width="0.500" d="M297.840 398.736C297.865 398.467 298.380 398.197 298.633 398.785C298.900 398.698 299.585 399.046 299.863 399.898C300.404 400.121 300.148 400.427 300.467 401.195C300.552 401.293 300.583 401.847 300.076 401.915C300.012 402.146 299.704 401.776 299.342 401.980C299.113 401.665 298.356 401.103 298.379 400.877C297.942 400.475 297.685 399.880 297.271 399.567C297.396 399.114 297.580 398.579 297.840 398.736Z" />
<path fill="none" stroke="#000000" stroke-width="0.500" d="M296.564 395.176C296.837 395.358 297.233 395.057 297.390 395.421C297.853 395.785 298.134 396.308 298.638 396.653C298.633 397.074 298.741 397.376 298.751 398.267C298.653 398.441 298.436 398.715 298.177 398.913C298.042 399.075 297.577 398.773 297.572 398.490C296.903 398.455 296.869 397.603 296.862 397.538C296.441 396.983 296.083 396.587 296.044 396.069C296.279 395.674 296.096 395.256 296.564 395.176Z" />
<path fill="none" stroke="#000000" stroke-width="0.500" d="M298.084 392.558C298.564 393.131 298.185 393.479 297.981 393.736C297.883 394.236 297.286 394.122 296.950 394.254C296.136 394.652 295.679 394.999 295.247 394.732C294.928 394.998 294.998 394.682 294.654 394.519C294.430 394.174 294.566 394.023 294.565 393.551C295.106 393.188 295.638 392.666 295.800 392.541C296.370 392.733 296.829 392.368 297.387 392.176C297.625 392.175 298.078 392.490 298.084 392.558Z" />
<path fill="none" stroke="#000000" stroke-width="0.500" d="M294.046 389.476C294.278 389.203 294.348 388.790 294.808 388.739C295.565 388.678 296.018 389.082 296.284 389.239C297.082 389.135 297.490 389.392 297.911 389.518C297.926 389.563 298.181 390.224 297.981 390.571C298.073 390.572 297.916 391.031 297.575 390.905C296.865 391.262 296.532 390.883 296.200 391.058C295.229 391.098 295.217 390.760 294.346 390.437C294.305 390.422 294.340 390.143 294.046 389.476Z" />
<path fill="none" stroke="#000000" stroke-width="0.500" d="M299.022 387.675C299.310 387.992 299.110 387.997 298.554 387.989C298.022 387.912 297.472 387.763 296.959 387.383C296.488 387.305 296.036 387.170 295.769 386.590C295.751 386.420 295.614 386.312 295.769 385.932C295.783 385.886 295.947 385.432 296.394 385.199C296.827 385.469 297.563 385.538 297.975 386.123C298.419 386.194 299.139 386.145 299.209 386.911C299.632 386.797 299.413 387.319 299.022 387.675Z" />
<path fill="none" stroke="#000000" stroke-width="0.500" d="M302.179 384.842C302.585 385.039 302.257 385.447 301.876 385.399C301.300 385.770 300.579 385.661 300.033 385.888C299.740 385.492 299.023 385.496 298.842 385.451C298.759 385.158 298.469 384.981 298.261 384.653C298.280 384.185 298.539 383.796 298.862 383.875C299.285 383.517 299.834 383.388 300.408 383.610C301.170 383.513 301.418 383.854 301.954 383.987C302.151 384.349 302.523 384.516 302.179 384.842Z" />
<path fill="none" stroke="#000000" stroke-width="0.500" d="M305.036 381.928C305.220 382.414 305.478 383.033 305.571 383.029C305.097 383.507 305.035 383.907 304.401 384.457C304.463 384.748 303.770 385.153 303.538 385.604C303.192 385.412 303.010 385.408 302.675 385.343C302.217 385.178 302.424 384.951 302.273 384.330C302.396 384.033 302.631 383.360 302.804 383.285C303.404 382.623 303.752 382.655 304.300 382.093C304.580 382.063 304.643 381.853 305.036 381.928Z" />
<path fill="none" stroke="#000000" stroke-width="0.500" d="M309.257 383.942C309.234 384.220 308.921 384.260 308.534 384.699C308.302 384.621 307.754 384.865 307.220 384.686C306.930 384.423 306.014 384.454 305.630 383.881C305.580 383.875 305.591 383.274 305.314 383.051C305.434 382.572 305.921 382.604 306.027 382.641C306.612 382.344 307.119 382.259 307.715 382.759C307.901 382.588 308.578 382.666 308.835 383.029C309.048 383.359 309.361 383.478 309.257 383.942Z" />
<path fill="none" stroke="#000000" stroke-width="0.500" d="M312.297 384.927C312.607 385.111 311.917 385.184 311.976 385.135C311.186 385.177 310.742 384.852 310.427 384.437C309.990 384.404 309.477 383.752 309.298 383.366C309.350 383.065 309.095 382.514 309.552 382.424C309.480 382.377 309.757 382.045 310.107 382.163C310.816 382.490 311.095 382.436 311.684 382.758C311.882 383.443 312.210 383.598 312.730 384.000C312.971 384.146 312.790 384.953 312.297 384.927Z" />
<path fill="none" stroke="#000000" stroke-width="0.500" d="M316.073 383.057C316.713 383.460 316.305 383.981 316.004 383.975C315.749 384.382 315.371 384.771 315.160 384.909C314.832 385.384 313.995 385.639 313.670 385.355C313.102 385.370 313.008 385.353 312.698 384.991C312.841 384.708 312.570 384.646 312.874 384.087C313.119 383.703 313.718 383.304 314.161 383.354C314.391 383.176 314.961 382.885 315.673 382.567C315.693 382.603 316.439 382.909 316.073 383.057Z" />
<path fill="none" stroke="#000000" stroke-width="0.500" d="M319.773 384.111C319.960 383.953 319.944 384.620 319.940 384.910C319.141 385.067 319.039 385.381 318.827 385.667C317.879 385.845 317.568 385.906 317.303 386.181C316.667 386.229 316.532 385.820 316.544 385.704C316.248 385.061 316.214 384.818 316.301 384.991C316.739 384.161 317.090 384.328 317.708 383.938C317.995 383.545 318.541 383.597 319.176 383.452C319.376 383.154 319.747 383.551 319.773 384.111Z" />
<path fill="#cccccc" stroke="none" d="M228.180 294.110L225.550 278.510L232.030 274.190L241.380 279.710L241.860 289.790L237.300 295.070Z" />
<path fill="none" stroke="#000000" stroke-width="0.500" d="M228.180 294.110L225.550 278.510L232.030 274.190L241.380 279.710L241.860 289.790L237.300 295.070Z" />
<path fill="#cccccc" stroke="none" d="M285.300 280.680L286.500 270.600L292.500 270.120L298.020 275.400L295.140 282.840L287.220 284.520Z" />
<path fill="none" stroke="#000000" stroke-width="0.500" d="M285.300 280.680L286.500 270.600L292.500 270.120L298.020 275.400L295.140 282.840L287.220 284.520Z" />
<path fill="none" stroke="#000000" stroke-width="0.700" d="M238.550 33.540h0.001" />
<path fill="none" stroke="#000000" stroke-width="0.700" d="M236.818 30.540h0.001" />
<path fill="none" stroke="#000000" stroke-width="0.700" d="M240.282 30.540h0.001" />
<path fill="none" stroke="#000000" stroke-width="0.500" d="M75.180 146.590L83.180 147.590L78.480 153.590Z" />
<path fill="none" stroke="#000000" stroke-width="0.500" d="M82.680 149.090L85.180 150.090L83.180 156.590L79.180 156.590Z" />
<path fill="none" stroke="#000000" stroke-width="0.500" d="M77.480 151.590L79.180 154.590L75.180 155.090Z" />
<path fill="none" stroke="#000000" stroke-width="0.350" d="M75.180 146.590L79.180 149.590L78.480 153.590" />
<path fill="none" stroke="#000000" stroke-width="0.350" d="M79.180 149.590L83.180 147.590" />
<path fill="none" stroke="#000000" stroke-width="0.350" d="M82.680 149.090L83.180 151.590L82.180 153.590L79.180 156.590" />
<path fill="none" stroke="#000000" stroke-width="0.350" d="M83.180 156.590L82.180 153.590" />
<path fill="none" stroke="#000000" stroke-width="0.350" d="M85.180 150.090L83.180 151.590" />
<path fill="none" stroke="#000000" stroke-width="0.500" d="M113.610 118.500L116.610 120.300L112.610 121.500Z" />
<path fill="none" stroke="#000000" stroke-width="0.500" d="M118.610 118.500L120.610 121.500L117.610 121.500Z" />
<path fill="none" stroke="#000000" stroke-width="0.500" d="M115.610 122.500L118.610 125.500L114.610 125.500Z" />
<path fill="none" stroke="#000000" stroke-width="0.500" d="M153.700 75.530L156.700 77.330L152.700 78.530Z" />
<path fill="none" stroke="#000000" stroke-width="0.500" d="M158.700 75.530L160.700 78.530L157.700 78.530Z" />
<path fill="none" stroke="#000000" stroke-width="0.500" d="M155.700 79.530L158.700 82.530L154.700 82.530Z" />
<path fill="none" stroke="#000000" stroke-width="0.500" d="M197.400 0.410L200.400 2.210L196.400 3.410Z" />
<path fill="none" stroke="#000000" stroke-width="0.500" d="M202.400 0.410L204.400 3.410L201.400 3.410Z" />
<path fill="none" stroke="#000000" stroke-width="0.500" d="M199.400 4.410L202.400 7.410L198.400 7.410Z" />
<path fill="none" stroke="#000000" stroke-width="0.500" d="M253.430 250.470L261.430 251.470L256.730 257.470Z" />
<path fill="none" stroke="#000000" stroke-width="0.500" d="M260.930 252.970L263.430 253.970L261.430 260.470L257.430 260.470Z" />
<path fill="none" stroke="#000000" stroke-width="0.500" d="M255.730 255.470L257.430 258.470L253.430 258.970Z" />
<path fill="none" stroke="#000000" stroke-width="0.350" d="M253.430 250.470L257.430 253.470L256.730 257.470" />
<path fill="none" stroke="#000000" stroke-width="0.350" d="M257.430 253.470L261.430 251.470" />
<path fill="none" stroke="#000000" stroke-width="0.350" d="M260.930 252.970L261.430 255.470L260.430 257.470L257.430 260.470" />
<path fill="none" stroke="#000000" stroke-width="0.350" d="M261.430 260.470L260.430 257.470" />
<path fill="none" stroke="#000000" stroke-width="0.350" d="M263.430 253.970L261.430 255.470" />
<path fill="none" stroke="#000000" stroke-width="0.500" d="M328.550 254.810L336.550 255.810L331.850 261.810Z" />
<path fill="none" stroke="#000000" stroke-width="0.500" d="M336.050 257.310L338.550 258.310L336.550 264.810L332.550 264.810Z" />
<path fill="none" stroke="#000000" stroke-width="0.500" d="M330.850 259.810L332.550 262.810L328.550 263.310Z" />
<path fill="none" stroke="#000000" stroke-width="0.350" d="M328.550 254.810L332.550 257.810L331.850 261.810" />
<path fill="none" stroke="#000000" stroke-width="0.350" d="M332.550 257.810L336.550 255.810" />
<path fill="none" stroke="#000000" stroke-width="0.350" d="M336.050 257.310L336.550 259.810L335.550 261.810L332.550 264.810" />
<path fill="none" stroke="#000000" stroke-width="0.350" d="M336.550 264.810L335.550 261.810" />
<path fill="none" stroke="#000000" stroke-width="0.350" d="M338.550 258.310L336.550 259.810" />
<path fill="#cccccc" stroke="none" d="M3.070 341.410L0.670 333.720L4.990 326.040L14.590 331.330L16.990 342.370L4.990 345.730Z" />
<path fill="none" stroke="#000000" stroke-width="0.500" d="M3.070 341.410L0.670 333.720L4.990 326.040L14.590 331.330L16.990 342.370L4.990 345.730Z" />
<path fill="#cccccc" stroke="none" d="M83.240 333.250L81.320 323.170L85.160 318.370L91.880 317.410C91.880 317.410 98.120 325.570 99.080 327.490C100.040 329.410 97.640 342.850 97.640 342.850L88.040 340.930Z" />
<path fill="none" stroke="#000000" stroke-width="0.500" d="M83.240 333.250L81.320 323.170L85.160 318.370L91.880 317.410C91.880 317.410 98.120 325.570 99.080 327.490C100.040 329.410 97.640 342.850 97.640 342.850L88.040 340.930Z" />
<path fill="#cccccc" stroke="none" d="M198.430 333.720L195.550 322.200L196.510 315.950L207.550 314.030L215.230 324.590L214.750 334.670L206.590 338.040Z" />
<path fill="none" stroke="#000000" stroke-width="0.500" d="M198.430 333.720L195.550 322.200L196.510 315.950L207.550 314.030L215.230 324.590L214.750 334.670L206.590 338.040Z" />
<path fill="#cccccc" stroke="none" d="M114.930 321.250L119.250 315.970L127.410 322.210L123.090 328.930L113.480 330.850Z" />
<path fill="none" stroke="#000000" stroke-width="0.500" d="M114.930 321.250L119.250 315.970L127.410 322.210L123.090 328.930L113.480 330.850Z" />
<path fill="#cccccc" stroke="none" d="M154.770 331.800L154.770 323.640L156.690 317.880L163.880 323.160L165.800 332.760L160.040 339.000Z" />
<path fill="none" stroke="#000000" stroke-width="0.500" d="M154.770 331.800L154.770 323.640L156.690 317.880L163.880 323.160L165.800 332.760L160.040 339.000Z" />
<path fill="#cccccc" stroke="none" d="M180.200 335.160L181.160 327.960L188.360 329.400L191.230 342.360L183.560 341.880Z" />
<path fill="none" stroke="#000000" stroke-width="0.500" d="M180.200 335.160L181.160 327.960L188.360 329.400L191.230 342.360L183.560 341.880Z" />
<path fill="#cccccc" stroke="none" d="M129.320 399.020L129.320 384.130L136.520 373.090L151.880 378.850L157.640 391.330L156.680 398.530L147.080 400.930Z" />
<path fill="none" stroke="#000000" stroke-width="0.500" d="M129.320 399.020L129.320 384.130L136.520 373.090L151.880 378.850L157.640 391.330L156.680 398.530L147.080 400.930Z" />
<path fill="#cccccc" stroke="none" d="M369.780 294.860L366.420 279.980L374.580 276.140L383.700 282.860L386.100 294.380L372.180 303.980Z" />
<path fill="none" stroke="#000000" stroke-width="0.500" d="M369.780 294.860L366.420 279.980L374.580 276.140L383.700 282.860L386.100 294.380L372.180 303.980Z" />
<path fill="none" stroke="#000000" stroke-width="0.500" d="M467.659 320.624C467.549 320.928 467.257 321.121 466.933 321.158C466.422 321.217 465.921 321.056 465.438 320.880C464.955 320.704 464.468 320.506 464.114 320.132C463.890 319.895 463.790 319.560 463.901 319.256C464.011 318.952 464.303 318.759 464.627 318.722C465.138 318.663 465.639 318.825 466.122 319.000C466.605 319.176 467.092 319.374 467.446 319.748C467.670 319.985 467.770 320.320 467.659 320.624Z" />
<path fill="none" stroke="#000000" stroke-width="0.500" d="M469.877 313.736C470.072 313.995 470.074 314.344 469.929 314.636C469.700 315.097 469.292 315.429 468.882 315.739C468.471 316.048 468.040 316.349 467.533 316.442C467.213 316.501 466.877 316.402 466.683 316.144C466.488 315.885 466.486 315.536 466.631 315.244C466.860 314.783 467.268 314.451 467.678 314.141C468.089 313.832 468.520 313.532 469.027 313.438C469.347 313.379 469.683 313.478 469.877 313.736Z" />
<path fill="none" stroke="#000000" stroke-width="0.500" d="M464.219 313.174C464.505 313.326 464.655 313.642 464.646 313.968C464.634 314.482 464.404 314.956 464.163 315.409C463.922 315.863 463.658 316.318 463.238 316.617C462.972 316.806 462.627 316.858 462.341 316.706C462.055 316.554 461.905 316.238 461.914 315.912C461.926 315.398 462.156 314.924 462.397 314.471C462.638 314.017 462.902 313.562 463.322 313.263C463.588 313.074 463.933 313.022 464.219 313.174Z" />
<path fill="none" stroke="#000000" stroke-width="0.500" d="M411.979 319.654C411.869 319.958 411.577 320.151 411.253 320.188C410.742 320.247 410.241 320.086 409.758 319.910C409.275 319.734 408.788 319.536 408.434 319.162C408.210 318.925 408.110 318.590 408.221 318.286C408.331 317.982 408.623 317.789 408.947 317.752C409.458 317.693 409.959 317.854 410.442 318.030C410.925 318.206 411.412 318.404 411.766 318.778C411.990 319.015 412.090 319.350 411.979 319.654Z" />
<path fill="none" stroke="#000000" stroke-width="0.500" d="M414.197 312.766C414.392 313.025 414.394 313.374 414.249 313.666C414.020 314.127 413.612 314.459 413.202 314.769C412.791 315.078 412.360 315.379 411.853 315.472C411.533 315.531 411.197 315.432 411.003 315.174C410.808 314.915 410.806 314.566 410.951 314.274C411.180 313.813 411.588 313.481 411.998 313.171C412.409 312.862 412.840 312.562 413.347 312.468C413.667 312.409 414.003 312.508 414.197 312.766Z" />
<path fill="none" stroke="#000000" stroke-width="0.500" d="M408.539 312.204C408.825 312.356 408.975 312.672 408.966 312.998C408.954 313.512 408.724 313.986 408.483 314.440C408.242 314.893 407.978 315.348 407.558 315.647C407.292 315.836 406.947 315.888 406.661 315.736C406.375 315.584 406.225 315.268 406.234 314.942C406.246 314.428 406.476 313.954 406.717 313.500C406.958 313.047 407.222 312.592 407.642 312.293C407.908 312.104 408.253 312.052 408.539 312.204Z" />
<path fill="none" stroke="#000000" stroke-width="0.500" d="M409.099 284.124C408.989 284.428 408.697 284.621 408.373 284.658C407.862 284.717 407.361 284.556 406.878 284.380C406.395 284.204 405.908 284.006 405.554 283.632C405.330 283.395 405.230 283.060 405.341 282.756C405.451 282.452 405.743 282.259 406.067 282.222C406.578 282.163 407.079 282.325 407.562 282.500C408.045 282.676 408.532 282.874 408.886 283.248C409.110 283.485 409.210 283.820 409.099 284.124Z" />
<path fill="none" stroke="#000000" stroke-width="0.500" d="M411.317 277.236C411.512 277.495 411.514 277.844 411.369 278.136C411.140 278.597 410.732 278.929 410.322 279.239C409.911 279.548 409.480 279.849 408.973 279.942C408.653 280.001 408.317 279.902 408.123 279.644C407.928 279.385 407.926 279.036 408.071 278.744C408.300 278.283 408.708 277.951 409.118 277.641C409.529 277.332 409.960 277.032 410.467 276.938C410.787 276.879 411.123 276.978 411.317 277.236Z" />
<path fill="none" stroke="#000000" stroke-width="0.500" d="M405.659 276.674C405.945 276.826 406.095 277.142 406.086 277.468C406.074 277.982 405.844 278.456 405.603 278.909C405.362 279.363 405.098 279.818 404.678 280.117C404.412 280.306 404.067 280.358 403.781 280.206C403.495 280.054 403.345 279.738 403.354 279.412C403.366 278.898 403.596 278.424 403.837 277.971C404.078 277.517 404.342 277.062 404.762 276.763C405.028 276.574 405.373 276.522 405.659 276.674Z" />
<path fill="#cccccc" stroke="none" d="M243.050 426.840L248.330 416.760L257.440 416.760L262.240 425.880L260.800 434.040L247.850 438.840Z" />
<path fill="none" stroke="#000000" stroke-width="0.500" d="M243.050 426.840L248.330 416.760L257.440 416.760L262.240 425.880L260.800 434.040L247.850 438.840Z" />
<path fill="none" stroke="#000000" stroke-width="0.500" d="M261.760 463.330L261.760 458.040L266.560 456.600L270.880 460.930L268.960 467.650L261.760 463.330" />
<path fill="#cccccc" stroke="none" d="M273.040 457.330L275.680 453.970L281.200 455.410L279.040 459.730L275.920 461.650Z" />
<path fill="none" stroke="#000000" stroke-width="0.500" d="M273.040 457.330L275.680 453.970L281.200 455.410L279.040 459.730L275.920 461.650Z" />
<path fill="#cccccc" stroke="none" d="M285.990 458.290L283.120 453.010L285.040 450.370L289.830 450.610L291.990 455.410Z" />
<path fill="none" stroke="#000000" stroke-width="0.500" d="M285.990 458.290L283.120 453.010L285.040 450.370L289.830 450.610L291.990 455.410Z" />
<path fill="none" stroke="#000000" stroke-width="0.500" d="M295.350 446.770L292.000 440.050L295.600 426.850L298.720 422.530L304.720 422.290L309.750 426.370L310.950 434.290L306.630 440.770L301.830 446.530L295.350 446.770" />
<path fill="none" stroke="#000000" stroke-width="0.350" d="M292.000 440.050L300.400 432.130L298.720 422.530" />
<path fill="none" stroke="#000000" stroke-width="0.350" d="M300.400 432.130L301.830 446.530" />
<path fill="none" stroke="#000000" stroke-width="0.500" stroke-dasharray="3.000,3.000" stroke-dashoffset="0.000" d="M280.950 497.890C277.590 496.930 274.240 492.610 274.240 492.610C274.240 492.610 274.240 485.890 275.200 481.570C276.160 477.250 281.430 471.490 284.790 471.010C288.150 470.530 293.910 472.450 296.310 475.810C298.710 479.170 302.070 484.450 301.110 488.290C300.150 492.130 302.550 495.490 298.230 496.930C293.910 498.370 284.310 498.850 280.950 497.890Z" />
</g>
</g>
</g>
<g id="G_aaaaaaa_output/marina.svg">
</g>
<g id="B_aaaaaaa_output/marina.svg">
<path fill="none" stroke="inherit" stroke-width="0.350" d="M507.090 391.240C498.690 390.280 497.250 385.000 494.850 385.480C492.450 385.960 488.140 378.760 488.140 378.760C488.140 378.760 480.460 371.550 476.620 373.950C472.780 376.350 475.660 375.870 466.530 382.590C457.410 389.310 445.890 410.910 436.770 414.270C427.650 417.620 419.960 429.140 411.320 438.740C402.680 448.340 401.240 458.420 395.960 460.340C390.680 462.260 377.720 465.610 369.560 471.850C361.390 478.090 345.550 492.970 345.070 499.690C344.590 506.410 349.390 523.210 347.950 530.890C346.510 538.570 348.430 550.090 344.590 557.290C340.750 564.490 311.390 555.610 311.950 562.570C313.150 577.450 298.040 571.690 298.040 571.690C298.040 571.690 292.760 571.210 292.280 564.010C291.420 551.150 300.920 552.730 300.920 552.730C300.920 552.730 300.920 545.290 302.360 540.970C303.800 536.650 303.800 531.370 298.520 528.970C293.240 526.570 280.760 519.850 280.760 519.850C280.760 519.850 273.090 513.130 271.650 511.210C270.210 509.280 263.010 504.960 259.170 504.490C255.330 504.010 239.020 489.610 232.780 486.250C226.550 482.890 217.910 474.250 211.190 472.810C204.470 471.370 171.840 461.780 171.840 461.780C171.840 461.780 151.200 463.220 140.160 464.180C129.120 465.140 118.560 458.900 118.560 458.900C118.560 458.900 76.310 432.010 71.510 431.530C66.710 431.050 39.830 422.410 35.990 423.370C32.150 424.330 20.620 426.730 23.500 435.850" />
<path fill="none" stroke="inherit" stroke-width="0.350" d="M0.940 371.040C0.940 371.040 27.350 368.160 28.790 365.280C30.230 362.400 54.230 358.080 49.430 351.360C44.630 344.640 33.110 346.560 27.830 341.280" />
<path fill="none" stroke="inherit" stroke-width="0.350" d="M27.830 341.280C22.550 336.000 22.070 342.240 19.190 345.120" />
<path fill="none" stroke="inherit" stroke-width="0.350" d="M15.350 340.800C15.350 340.800 19.670 338.400 20.150 335.520" />
<path fill="none" stroke="inherit" stroke-width="0.350" d="M20.150 335.520C20.630 332.640 11.030 320.630 12.470 313.430C13.910 306.230 23.510 294.710 22.070 288.950" />
<path fill="none" stroke="inherit" stroke-width="0.350" d="M22.070 288.950C20.630 283.190 14.390 280.790 14.390 280.790" />
<path fill="none" stroke="inherit" stroke-width="0.350" d="M19.190 273.590C19.190 273.590 22.550 277.430 26.870 277.910" />
<path fill="none" stroke="inherit" stroke-width="0.350" d="M26.870 277.910C31.190 278.390 35.030 277.910 37.430 274.550C39.830 271.190 57.120 246.700 60.000 240.460C62.880 234.220 66.720 221.260 70.080 214.060C73.440 206.860 80.160 188.130 84.000 185.730C87.850 183.330 103.690 156.930 109.450 154.050C115.210 151.170 158.900 98.360 158.900 98.360C158.900 98.360 166.110 92.600 171.390 90.200C176.670 87.800 216.040 39.800 219.880 35.960C223.720 32.120 238.600 22.050 245.320 16.290C252.040 10.530 266.450 -4.350 272.210 1.890C277.970 8.130 280.370 8.610 286.130 21.570C291.880 34.530 280.840 40.770 277.960 44.610C275.080 48.450 268.360 54.210 271.240 61.410C274.120 68.610 267.880 58.530 278.440 74.860C289.000 91.180 280.830 99.340 277.470 104.620C274.110 109.900 246.260 143.980 240.020 149.260" />
<path fill="none" stroke="inherit" stroke-width="0.350" d="M240.020 149.260C233.780 154.540 226.090 169.410 214.570 179.970C203.060 190.530 188.660 219.340 178.580 229.900" />
<path fill="none" stroke="inherit" stroke-width="0.350" d="M178.580 229.900C168.500 240.470 159.370 246.230 156.010 252.950C152.650 259.670 156.010 266.390 156.970 268.790C157.930 271.190 153.610 275.510 164.650 278.870C175.690 282.230 179.530 282.710 189.130 284.150C198.730 285.590 208.330 294.230 212.650 295.190C216.960 296.150 226.560 296.140 238.080 293.260C249.590 290.380 298.550 287.990 305.750 289.430C312.950 290.880 324.470 292.320 330.710 294.240C336.950 296.160 391.190 292.330 407.510 297.140C423.830 301.940 467.980 342.750 473.260 347.550C478.540 352.350 501.100 363.400 503.020 365.800C504.940 368.200 510.700 381.640 509.740 383.560" />
<path fill="none" stroke="inherit" stroke-width="0.350" d="M509.740 383.560C508.770 385.480 512.610 390.280 515.490 394.120" />
<path fill="none" stroke="inherit" stroke-width="0.350" d="M514.290 397.000C514.290 397.000 509.970 392.200 507.090 391.240" />
</g>
<g id="I_aaaaaaa_output/marina.svg">
<path fill="inherit" stroke="none" d="M507.090 391.240C498.690 390.280 497.250 385.000 494.850 385.480C492.450 385.960 488.140 378.760 488.140 378.760C488.140 378.760 480.460 371.550 476.620 373.950C472.780 376.350 475.660 375.870 466.530 382.590C457.410 389.310 445.890 410.910 436.770 414.270C427.650 417.620 419.960 429.140 411.320 438.740C402.680 448.340 401.240 458.420 395.960 460.340C390.680 462.260 377.720 465.610 369.560 471.850C361.390 478.090 345.550 492.970 345.070 499.690C344.590 506.410 349.390 523.210 347.950 530.890C346.510 538.570 348.430 550.090 344.590 557.290C340.750 564.490 311.390 555.610 311.950 562.570C313.150 577.450 298.040 571.690 298.040 571.690C298.040 571.690 292.760 571.210 292.280 564.010C291.420 551.150 300.920 552.730 300.920 552.730C300.920 552.730 300.920 545.290 302.360 540.970C303.800 536.650 303.800 531.370 298.520 528.970C293.240 526.570 280.760 519.850 280.760 519.850C280.760 519.850 273.090 513.130 271.650 511.210C270.210 509.280 263.010 504.960 259.170 504.490C255.330 504.010 239.020 489.610 232.780 486.250C226.550 482.890 217.910 474.250 211.190 472.810C204.470 471.370 171.840 461.780 171.840 461.780C171.840 461.780 151.200 463.220 140.160 464.180C129.120 465.140 118.560 458.900 118.560 458.900C118.560 458.900 76.310 432.010 71.510 431.530C66.710 431.050 39.830 422.410 35.990 423.370C32.150 424.330 20.620 426.730 23.500 435.850C15.980 414.247 8.460 392.643 0.940 371.040C0.940 371.040 27.350 368.160 28.790 365.280C30.230 362.400 54.230 358.080 49.430 351.360C44.630 344.640 33.110 346.560 27.830 341.280C27.830 341.280 27.830 341.280 27.830 341.280C22.550 336.000 22.070 342.240 19.190 345.120C17.910 343.680 16.630 342.240 15.350 340.800C15.350 340.800 19.670 338.400 20.150 335.520C20.150 335.520 20.150 335.520 20.150 335.520C20.630 332.640 11.030 320.630 12.470 313.430C13.910 306.230 23.510 294.710 22.070 288.950C22.070 288.950 22.070 288.950 22.070 288.950C20.630 283.190 14.390 280.790 14.390 280.790C15.990 278.390 17.590 275.990 19.190 273.590C19.190 273.590 22.550 277.430 26.870 277.910C26.870 277.910 26.870 277.910 26.870 277.910C31.190 278.390 35.030 277.910 37.430 274.550C39.830 271.190 57.120 246.700 60.000 240.460C62.880 234.220 66.720 221.260 70.080 214.060C73.440 206.860 80.160 188.130 84.000 185.730C87.850 183.330 103.690 156.930 109.450 154.050C115.210 151.170 158.900 98.360 158.900 98.360C158.900 98.360 166.110 92.600 171.390 90.200C176.670 87.800 216.040 39.800 219.880 35.960C223.720 32.120 238.600 22.050 245.320 16.290C252.040 10.530 266.450 -4.350 272.210 1.890C277.970 8.130 280.370 8.610 286.130 21.570C291.880 34.530 280.840 40.770 277.960 44.610C275.080 48.450 268.360 54.210 271.240 61.410C274.120 68.610 267.880 58.530 278.440 74.860C289.000 91.180 280.830 99.340 277.470 104.620C274.110 109.900 246.260 143.980 240.020 149.260C240.020 149.260 240.020 149.260 240.020 149.260C233.780 154.540 226.090 169.410 214.570 179.970C203.060 190.530 188.660 219.340 178.580 229.900C178.580 229.900 178.580 229.900 178.580 229.900C168.500 240.470 159.370 246.230 156.010 252.950C152.650 259.670 156.010 266.390 156.970 268.790C157.930 271.190 153.610 275.510 164.650 278.870C175.690 282.230 179.530 282.710 189.130 284.150C198.730 285.590 208.330 294.230 212.650 295.190C216.960 296.150 226.560 296.140 238.080 293.260C249.590 290.380 298.550 287.990 305.750 289.430C312.950 290.880 324.470 292.320 330.710 294.240C336.950 296.160 391.190 292.330 407.510 297.140C423.830 301.940 467.980 342.750 473.260 347.550C478.540 352.350 501.100 363.400 503.020 365.800C504.940 368.200 510.700 381.640 509.740 383.560C509.740 383.560 509.740 383.560 509.740 383.560C508.770 385.480 512.610 390.280 515.490 394.120C515.090 395.080 514.690 396.040 514.290 397.000C514.290 397.000 509.970 392.200 507.090 391.240C507.090 391.240 507.090 391.240 507.090 391.240Z" />
</g>
<g id="E_aaaaaaa_output/marina.svg">
<path fill="none" stroke="#000000" stroke-width="1.000" stroke-dasharray="6.000,6.000" stroke-dashoffset="0.000" d="M27.830 342.280C22.550 337.000 22.070 343.240 19.190 346.120" />
<path fill="none" stroke="#000000" stroke-width="1.000" d="M0.940 372.040C0.940 372.040 27.350 369.160 28.790 366.280C30.230 363.400 54.230 359.080 49.430 352.360C44.630 345.640 33.110 347.560 27.830 342.280" />
<path fill="none" stroke="#000000" stroke-width="1.000" stroke-dasharray="6.000,6.000" stroke-dashoffset="0.000" d="M22.070 289.950C20.630 284.190 14.390 281.790 14.390 281.790" />
<path fill="none" stroke="#000000" stroke-width="1.000" d="M20.150 336.520C20.630 333.640 11.030 321.630 12.470 314.430C13.910 307.230 23.510 295.710 22.070 289.950" />
<path fill="none" stroke="#000000" stroke-width="1.000" stroke-dasharray="6.000,6.000" stroke-dashoffset="0.000" d="M15.350 341.800C15.350 341.800 19.670 339.400 20.150 336.520" />
<path fill="none" stroke="#000000" stroke-width="1.000" stroke-dasharray="6.000,6.000" stroke-dashoffset="0.000" d="M509.740 384.560C508.770 386.480 512.610 391.280 515.490 395.120" />
<path fill="none" stroke="#000000" stroke-width="1.000" d="M178.580 230.900C168.500 241.470 159.370 247.230 156.010 253.950C152.650 260.670 156.010 267.390 156.970 269.790C157.930 272.190 153.610 276.510 164.650 279.870C175.690 283.230 179.530 283.710 189.130 285.150C198.730 286.590 208.330 295.230 212.650 296.190C216.960 297.150 226.560 297.140 238.080 294.260C249.590 291.380 298.550 288.990 305.750 290.430C312.950 291.880 324.470 293.320 330.710 295.240C336.950 297.160 391.190 293.330 407.510 298.140C423.830 302.940 467.980 343.750 473.260 348.550C478.540 353.350 501.100 364.400 503.020 366.800C504.940 369.200 510.700 382.640 509.740 384.560" />
<path fill="none" stroke="#000000" stroke-width="0.500" d="M238.483 151.715C236.334 149.692 233.402 153.094 235.719 154.922" />
<path fill="#000000" stroke="none" d="M238.483 151.715C236.334 149.692 233.402 153.094 235.719 154.922L238.483 151.715Z" />
<path fill="none" stroke="#000000" stroke-width="0.500" d="M233.157 158.292C230.877 156.615 228.366 160.052 230.666 161.716" />
<path fill="#000000" stroke="none" d="M233.157 158.292C230.877 156.615 228.366 160.052 230.666 161.716L233.157 158.292Z" />
<path fill="none" stroke="#000000" stroke-width="0.500" d="M228.175 165.141C225.922 163.486 223.414 166.834 225.639 168.531" />
<path fill="#000000" stroke="none" d="M228.175 165.141C225.922 163.486 223.414 166.834 225.639 168.531L228.175 165.141Z" />
<path fill="none" stroke="#000000" stroke-width="0.500" d="M223.020 171.859C220.860 170.112 218.205 173.277 220.288 175.094" />
<path fill="#000000" stroke="none" d="M223.020 171.859C220.860 170.112 218.205 173.277 220.288 175.094L223.020 171.859Z" />
<path fill="none" stroke="#000000" stroke-width="0.500" d="M217.415 178.204C215.397 176.269 212.500 179.178 214.375 181.151" />
<path fill="#000000" stroke="none" d="M217.415 178.204C215.397 176.269 212.500 179.178 214.375 181.151L217.415 178.204Z" />
<path fill="none" stroke="#000000" stroke-width="0.500" d="M211.435 184.196C209.231 182.286 206.453 185.680 208.726 187.451" />
<path fill="#000000" stroke="none" d="M211.435 184.196C209.231 182.286 206.453 185.680 208.726 187.451L211.435 184.196Z" />
<path fill="none" stroke="#000000" stroke-width="0.500" d="M206.171 190.827C203.854 189.147 201.373 192.661 203.720 194.279" />
<path fill="#000000" stroke="none" d="M206.171 190.827C203.854 189.147 201.373 192.661 203.720 194.279L206.171 190.827Z" />
<path fill="none" stroke="#000000" stroke-width="0.500" d="M201.341 197.783C198.979 196.210 196.634 199.772 199.013 201.320" />
<path fill="#000000" stroke="none" d="M201.341 197.783C198.979 196.210 196.634 199.772 199.013 201.320L201.341 197.783Z" />
<path fill="none" stroke="#000000" stroke-width="0.500" d="M196.716 204.877C194.339 203.352 192.053 206.923 194.435 208.444" />
<path fill="#000000" stroke="none" d="M196.716 204.877C194.339 203.352 192.053 206.923 194.435 208.444L196.716 204.877Z" />
<path fill="none" stroke="#000000" stroke-width="0.500" d="M192.154 212.013C189.786 210.494 187.499 214.036 189.858 215.570" />
<path fill="#000000" stroke="none" d="M192.154 212.013C189.786 210.494 187.499 214.036 189.858 215.570L192.154 212.013Z" />
<path fill="none" stroke="#000000" stroke-width="0.500" d="M187.527 219.105C185.198 217.551 182.845 221.004 185.135 222.600" />
<path fill="#000000" stroke="none" d="M187.527 219.105C185.198 217.551 182.845 221.004 185.135 222.600L187.527 219.105Z" />
<path fill="none" stroke="#000000" stroke-width="0.500" d="M182.647 226.026C180.435 224.374 177.909 227.575 179.999 229.329" />
<path fill="#000000" stroke="none" d="M182.647 226.026C180.435 224.374 177.909 227.575 179.999 229.329L182.647 226.026Z" />
<path fill="none" stroke="#000000" stroke-width="0.500" d="M178.580 230.900L178.580 230.900" />
<path fill="#000000" stroke="none" d="M178.580 230.900L178.580 230.900L178.580 230.900Z" />
<path fill="none" stroke="#000000" stroke-width="1.000" d="M240.020 150.260C233.780 155.540 226.090 170.410 214.570 180.970C203.060 191.530 188.660 220.340 178.580 230.900" />
<path fill="none" stroke="#000000" stroke-width="1.000" d="M26.870 278.910C31.190 279.390 35.030 278.910 37.430 275.550C39.830 272.190 57.120 247.700 60.000 241.460C62.880 235.220 66.720 222.260 70.080 215.060C73.440 207.860 80.160 189.130 84.000 186.730C87.850 184.330 103.690 157.930 109.450 155.050C115.210 152.170 158.900 99.360 158.900 99.360C158.900 99.360 166.110 93.600 171.390 91.200C176.670 88.800 216.040 40.800 219.880 36.960C223.720 33.120 238.600 23.050 245.320 17.290C252.040 11.530 266.450 -3.350 272.210 2.890C277.970 9.130 280.370 9.610 286.130 22.570C291.880 35.530 280.840 41.770 277.960 45.610C275.080 49.450 268.360 55.210 271.240 62.410C274.120 69.610 267.880 59.530 278.440 75.860C289.000 92.180 280.830 100.340 277.470 105.620C274.110 110.900 246.260 144.980 240.020 150.260" />
<path fill="none" stroke="#000000" stroke-width="1.000" stroke-dasharray="6.000,6.000" stroke-dashoffset="0.000" d="M19.190 274.590C19.190 274.590 22.550 278.430 26.870 278.910" />
<path fill="none" stroke="#000000" stroke-width="1.000" d="M507.090 392.240C498.690 391.280 497.250 386.000 494.850 386.480C492.450 386.960 488.140 379.760 488.140 379.760C488.140 379.760 480.460 372.550 476.620 374.950C472.780 377.350 475.660 376.870 466.530 383.590C457.410 390.310 445.890 411.910 436.770 415.270C427.650 418.620 419.960 430.140 411.320 439.740C402.680 449.340 401.240 459.420 395.960 461.340C390.680 463.260 377.720 466.610 369.560 472.850C361.390 479.090 345.550 493.970 345.070 500.690C344.590 507.410 349.390 524.210 347.950 531.890C346.510 539.570 348.430 551.090 344.590 558.290C340.750 565.490 311.390 556.610 311.950 563.570C313.150 578.450 298.040 572.690 298.040 572.690C298.040 572.690 292.760 572.210 292.280 565.010C291.420 552.150 300.920 553.730 300.920 553.730C300.920 553.730 300.920 546.290 302.360 541.970C303.800 537.650 303.800 532.370 298.520 529.970C293.240 527.570 280.760 520.850 280.760 520.850C280.760 520.850 273.090 514.130 271.650 512.210C270.210 510.280 263.010 505.960 259.170 505.490C255.330 505.010 239.020 490.610 232.780 487.250C226.550 483.890 217.910 475.250 211.190 473.810C204.470 472.370 171.840 462.780 171.840 462.780C171.840 462.780 151.200 464.220 140.160 465.180C129.120 466.140 118.560 459.900 118.560 459.900C118.560 459.900 76.310 433.010 71.510 432.530C66.710 432.050 39.830 423.410 35.990 424.370C32.150 425.330 20.620 427.730 23.500 436.850" />
<path fill="#000000" stroke="none" d="M8.118 404.160L17.626 400.470L7.431 400.219Z" />
<path fill="none" stroke="#000000" stroke-width="0.350" d="M163.050 269.390L171.050 269.390L171.050 277.390L163.050 277.390Z" />
<path fill="none" stroke="#000000" stroke-width="0.500" d="M170.050 273.390C170.050 273.655 169.945 273.910 169.757 274.097C169.570 274.285 169.315 274.390 169.050 274.390C168.785 274.390 168.530 274.285 168.343 274.097C168.155 273.910 168.050 273.655 168.050 273.390C168.050 273.125 168.155 272.870 168.343 272.683C168.530 272.495 168.785 272.390 169.050 272.390C169.315 272.390 169.570 272.495 169.757 272.683C169.945 272.870 170.050 273.125 170.050 273.390Z" />
<path fill="none" stroke="#000000" stroke-width="1.000" stroke-linecap="butt" d="M164.050 273.390L168.050 273.390" />
<path fill="none" stroke="#000000" stroke-width="0.350" d="M168.050 269.390L168.050 277.390" />
<path fill="none" stroke="#000000" stroke-width="1.000" stroke-dasharray="6.000,6.000" stroke-dashoffset="0.000" d="M514.290 398.000C514.290 398.000 509.970 393.200 507.090 392.240" />
</g>
<g id="X_aaaaaaa_output/marina.svg">
<text font-family="thss00" font-size="7.970" fill="#000000" stroke="none" transform="matrix(1.000 0.000 -0.000 -1.000 0.881 2.576)">&#x34;&#x30;</text>
<text font-family="thss00" font-size="7.970" fill="#000000" stroke="none" transform="matrix(1.000 0.000 -0.000 -1.000 13.569 2.576)">&#x6d;</text>
<text font-family="thss00" font-size="7.970" fill="#000000" stroke="none" transform="matrix(1.000 0.000 -0.000 -1.000 23.875 2.576)">&#x63;&#x68;&#x69;&#x6d;&#x6e;&#x65;&#x79;</text>
</g>
<clipPath id="clip_viewBox">
<path d="M-66.181 -421.936L506.511 -421.936L506.511 209.757L-66.181 209.757z" />
</clipPath>
</defs>
<g transform="scale(1,-1)" fill="#000000" stroke="#000000" stroke-linecap="round" stroke-linejoin="round" stroke-miterlimit="10" fill-rule="evenodd" clip-rule="evenodd" clip-path="url(#clip_viewBox)">
<g fill="#cccccc">
<use x="-37.835" y="-392.589" xlink:href="#I_aaaaaaa_output/marina.svg" />
</g>
<use x="-6.835" y="-335.589" xlink:href="#F_aaaaaaa_output/marina.svg" />
<use x="-37.835" y="-393.589" xlink:href="#E_aaaaaaa_output/marina.svg" />
<use x="311.165" y="154.411" xlink:href="#X_aaaaaaa_output/marina.svg" />
</g>
</svg>
