<?xml version="1.0" encoding="utf-8" standalone="no"?>
<!-- Generated by Therion 6.2.1 (2024-03-20) -->
<!-- Author: Paweł Krawczyk -->
<!-- Title: Marina pećina, Montenegro -->
<!DOCTYPE svg PUBLIC "-//W3C//DTD SVG 1.1//EN" "http://www.w3.org/Graphics/SVG/1.1/DTD/svg11.dtd">
<svg width="19.815cm" height="21.897cm" viewBox="-64.076 -382.170 561.693 620.693" xmlns="http://www.w3.org/2000/svg" xmlns:xlink="http://www.w3.org/1999/xlink">
<defs>
<g id="F_aaaaaaa_output/marina_ext.svg">
<g>
<clipPath id="clip_2_output/marina_ext.svg">
  <path d="M54.960 101.960C54.960 101.960 54.960 101.960 54.960 101.960C54.960 101.960 66.960 117.800 67.440 119.240C67.440 119.240 67.440 119.240 67.440 119.240C67.920 120.680 79.440 126.440 89.520 132.680C99.600 138.920 114.960 143.240 114.960 143.240C119.280 144.680 123.600 146.120 127.920 147.560C137.360 151.240 146.800 154.920 156.240 158.600C156.240 158.600 156.240 158.600 156.240 158.600C159.280 160.520 162.320 162.440 165.360 164.360C165.360 164.360 165.360 164.360 165.360 164.360C165.360 164.360 168.240 164.360 166.320 169.640C164.400 174.920 169.200 177.800 169.200 177.800C170.960 178.280 172.720 178.760 174.480 179.240C174.320 181.320 174.160 183.400 174.000 185.480C172.720 186.920 171.440 188.360 170.160 189.800C155.120 185.000 140.080 180.200 125.040 175.400C114.960 171.080 104.880 166.760 94.800 162.440C90.160 160.840 85.520 159.240 80.880 157.640C73.520 155.240 66.160 152.840 58.800 150.440C52.560 150.760 46.320 151.080 40.080 151.400C0.560 137.320 -38.960 123.240 -78.480 109.160C-78.480 109.160 -74.640 95.720 -72.720 95.240C-70.800 94.760 0.240 92.840 0.240 92.840C8.400 93.320 16.560 93.800 24.720 94.280C29.840 94.600 34.960 94.920 40.080 95.240C45.040 97.480 50.000 99.720 54.960 101.960" />
</clipPath>
<g clip-path="url(#clip_2_output/marina_ext.svg)">
<path fill="none" stroke="#000000" stroke-width="0.350" d="M12.240 93.800L16.080 72.680C16.080 72.680 20.880 60.680 21.840 57.800C22.800 54.920 25.680 46.760 26.160 44.840C26.640 42.920 31.440 32.360 31.440 32.360C31.440 32.360 35.280 26.600 36.720 24.680C38.160 22.760 44.880 12.680 44.880 12.680L53.520 3.080" />
<path fill="none" stroke="#000000" stroke-width="0.350" d="M0.240 92.840C0.240 92.840 9.840 63.080 12.240 58.760C14.640 54.440 24.720 34.280 24.720 31.880C24.720 29.480 30.960 17.480 30.960 17.480L46.320 0.200" />
</g>
</g>
</g>
<g id="G_aaaaaaa_output/marina_ext.svg">
</g>
<g id="B_aaaaaaa_output/marina_ext.svg">
<path fill="none" stroke="inherit" stroke-width="0.350" d="M133.960 9.960L119.080 3.240L103.720 2.280L79.240 0.840C79.240 0.840 8.200 2.760 6.280 3.240C4.360 3.720 0.520 17.160 0.520 17.160" />
<path fill="none" stroke="inherit" stroke-width="0.350" d="M119.080 59.400L137.800 58.440L159.880 65.640L173.800 70.440L204.040 83.400L249.160 97.800L253.000 93.480L253.480 87.240L248.200 85.800C248.200 85.800 243.400 82.920 245.320 77.640C247.240 72.360 244.360 72.360 244.360 72.360" />
<path fill="none" stroke="inherit" stroke-width="0.350" d="M244.360 72.360L235.240 66.600" />
<path fill="none" stroke="inherit" stroke-width="0.350" d="M235.240 66.600L206.920 55.560L193.960 51.240C193.960 51.240 178.600 46.920 168.520 40.680C158.440 34.440 146.920 28.680 146.440 27.240" />
<path fill="none" stroke="inherit" stroke-width="0.350" d="M146.440 27.240C145.960 25.800 133.960 9.960 133.960 9.960" />
</g>
<g id="I_aaaaaaa_output/marina_ext.svg">
<path fill="inherit" stroke="none" d="M133.960 9.960C133.960 9.960 133.960 9.960 133.960 9.960C133.960 9.960 145.960 25.800 146.440 27.240C146.440 27.240 146.440 27.240 146.440 27.240C146.920 28.680 158.440 34.440 168.520 40.680C178.600 46.920 193.960 51.240 193.960 51.240C198.280 52.680 202.600 54.120 206.920 55.560C216.360 59.240 225.800 62.920 235.240 66.600C235.240 66.600 235.240 66.600 235.240 66.600C238.280 68.520 241.320 70.440 244.360 72.360C244.360 72.360 244.360 72.360 244.360 72.360C244.360 72.360 247.240 72.360 245.320 77.640C243.400 82.920 248.200 85.800 248.200 85.800C249.960 86.280 251.720 86.760 253.480 87.240C253.320 89.320 253.160 91.400 253.000 93.480C251.720 94.920 250.440 96.360 249.160 97.800C234.120 93.000 219.080 88.200 204.040 83.400C193.960 79.080 183.880 74.760 173.800 70.440C169.160 68.840 164.520 67.240 159.880 65.640C152.520 63.240 145.160 60.840 137.800 58.440C131.560 58.760 125.320 59.080 119.080 59.400C79.560 45.320 40.040 31.240 0.520 17.160C0.520 17.160 4.360 3.720 6.280 3.240C8.200 2.760 79.240 0.840 79.240 0.840C87.400 1.320 95.560 1.800 103.720 2.280C108.840 2.600 113.960 2.920 119.080 3.240C124.040 5.480 129.000 7.720 133.960 9.960Z" />
</g>
<g id="E_aaaaaaa_output/marina_ext.svg">
<path fill="none" stroke="#000000" stroke-width="1.000" d="M133.960 9.960L119.080 3.240L103.720 2.280L79.240 0.840C79.240 0.840 8.200 2.760 6.280 3.240C4.360 3.720 0.520 17.160 0.520 17.160" />
<path fill="none" stroke="#000000" stroke-width="1.000" d="M244.360 72.360C244.360 72.360 247.240 72.360 245.320 77.640C243.400 82.920 248.200 85.800 248.200 85.800L253.480 87.240L253.000 93.480L249.160 97.800L204.040 83.400L173.800 70.440L159.880 65.640L137.800 58.440L119.080 59.400" />
<path fill="none" stroke="#000000" stroke-width="0.700" d="M236.895 63.979h0.001" />
<path fill="none" stroke="#000000" stroke-width="0.700" d="M236.733 66.257h0.001" />
<path fill="none" stroke="#000000" stroke-width="0.700" d="M237.344 67.309h0.001" />
<path fill="none" stroke="#000000" stroke-width="0.700" d="M239.538 65.854h0.001" />
<path fill="none" stroke="#000000" stroke-width="0.700" d="M240.734 65.981h0.001" />
<path fill="none" stroke="#000000" stroke-width="0.700" d="M240.821 67.864h0.001" />
<path fill="none" stroke="#000000" stroke-width="0.700" d="M242.793 66.761h0.001" />
<path fill="none" stroke="#000000" stroke-width="0.700" d="M242.345 69.489h0.001" />
<path fill="none" stroke="#000000" stroke-width="0.700" d="M244.550 68.019h0.001" />
<path fill="none" stroke="#000000" stroke-width="0.700" d="M244.058 70.818h0.001" />
<path fill="none" stroke="#000000" stroke-width="0.700" d="M244.500 72.139h0.001" />
<path fill="none" stroke="#000000" stroke-width="1.000" d="M235.240 66.600L244.360 72.360" />
<path fill="none" stroke="#000000" stroke-width="0.500" d="M146.756 26.037C147.960 26.983 149.319 28.449 150.240 29.105C148.745 29.288 147.290 29.970 146.831 30.042C146.772 29.226 146.789 28.214 146.756 26.037Z" />
<path fill="none" stroke="#000000" stroke-width="0.500" d="M152.568 29.133C153.038 30.770 152.215 31.957 152.192 33.335C150.979 32.356 150.141 31.195 149.272 29.935C150.454 29.409 151.347 29.417 152.568 29.133Z" />
<path fill="none" stroke="#000000" stroke-width="0.500" d="M153.484 34.188C153.755 32.716 154.615 31.727 154.558 29.912C155.060 31.575 156.326 33.082 157.004 34.028C155.064 34.140 154.346 34.432 153.484 34.188Z" />
<path fill="none" stroke="#000000" stroke-width="0.500" d="M156.541 34.673C157.020 33.595 159.079 33.533 160.318 32.828C160.012 34.593 159.429 35.100 159.117 37.366C158.356 36.289 157.319 35.326 156.541 34.673Z" />
<path fill="none" stroke="#000000" stroke-width="0.500" d="M161.336 39.303C161.078 37.588 161.117 35.675 160.600 34.229C161.473 35.389 162.917 36.443 164.210 36.825C163.030 37.108 161.926 37.755 161.336 39.303Z" />
<path fill="none" stroke="#000000" stroke-width="0.500" d="M164.728 36.605C165.929 37.288 166.993 39.058 167.673 39.269C166.536 40.281 164.854 40.268 163.953 39.857C164.369 38.833 164.077 37.762 164.728 36.605Z" />
<path fill="none" stroke="#000000" stroke-width="0.500" d="M168.355 38.844C169.104 39.408 170.184 40.206 171.844 41.642C169.991 42.248 169.001 41.877 167.887 42.630C167.658 41.433 168.049 40.170 168.355 38.844Z" />
<path fill="none" stroke="#000000" stroke-width="0.500" d="M173.872 40.823C174.139 42.775 173.697 44.303 172.881 44.913C172.811 44.496 171.573 43.423 170.427 42.499C171.835 42.327 172.412 41.865 173.872 40.823Z" />
<path fill="none" stroke="#000000" stroke-width="0.500" d="M173.661 43.839C175.221 43.654 177.352 43.215 178.198 43.309C177.841 45.269 176.330 45.535 175.470 46.878C175.204 45.252 174.460 44.591 173.661 43.839Z" />
<path fill="none" stroke="#000000" stroke-width="0.500" d="M179.464 49.043C179.298 46.967 178.461 46.192 178.480 44.781C179.075 44.534 180.889 45.415 181.942 45.666C181.356 46.438 179.853 47.659 179.464 49.043Z" />
<path fill="none" stroke="#000000" stroke-width="0.500" d="M183.618 45.467C184.326 47.185 184.921 47.761 185.389 49.569C184.577 48.873 182.608 48.456 181.661 48.447C182.478 47.044 183.422 46.005 183.618 45.467Z" />
<path fill="none" stroke="#000000" stroke-width="0.500" d="M187.152 51.852C186.506 50.198 186.175 48.346 185.768 47.634C186.880 47.835 188.002 48.284 189.237 48.961C188.562 49.995 187.489 50.379 187.152 51.852Z" />
<path fill="none" stroke="#000000" stroke-width="0.500" d="M192.148 48.379C191.786 49.214 193.091 51.175 193.051 52.723C191.805 51.929 190.470 51.091 189.302 50.485C189.847 50.111 191.020 48.591 192.148 48.379Z" />
<path fill="none" stroke="#000000" stroke-width="0.500" d="M198.041 51.385C196.099 51.948 195.557 52.712 194.423 53.639C193.811 52.246 194.106 51.547 193.765 50.459C195.609 50.317 196.746 50.436 198.041 51.385Z" />
<path fill="none" stroke="#000000" stroke-width="0.500" d="M198.000 50.227C199.031 52.095 200.513 52.665 201.780 53.533C200.415 53.791 199.584 54.292 197.652 54.619C197.750 53.735 197.904 51.640 198.000 50.227Z" />
<path fill="none" stroke="#000000" stroke-width="0.500" d="M203.905 56.781C202.764 55.679 201.508 54.455 200.685 53.424C202.249 53.065 203.074 53.086 204.776 52.551C204.464 54.082 203.955 54.795 203.905 56.781Z" />
<path fill="none" stroke="#000000" stroke-width="0.500" d="M206.110 53.371C207.319 54.101 207.785 54.895 209.121 55.110C208.287 56.070 206.803 56.521 205.656 57.744C205.939 56.242 205.188 54.819 206.110 53.371Z" />
<path fill="none" stroke="#000000" stroke-width="0.500" d="M212.906 56.704C212.056 57.623 210.454 58.028 209.113 59.339C209.140 57.322 209.870 56.206 209.442 55.693C211.106 55.336 211.551 56.524 212.906 56.704Z" />
<path fill="none" stroke="#000000" stroke-width="0.500" d="M213.645 55.627C214.473 56.887 215.676 57.590 216.855 59.772C215.308 59.905 214.038 59.620 212.934 59.936C213.083 58.465 213.549 57.094 213.645 55.627Z" />
<path fill="none" stroke="#000000" stroke-width="0.500" d="M220.707 58.702C219.618 59.862 219.054 61.229 217.919 62.724C217.063 61.248 216.788 60.082 215.927 58.487C217.861 58.428 219.550 58.848 220.707 58.702Z" />
<path fill="none" stroke="#000000" stroke-width="0.500" d="M224.100 62.018C223.049 61.974 220.897 62.457 219.642 62.420C220.938 61.284 220.613 60.122 222.067 59.186C222.332 59.854 223.623 61.560 224.100 62.018Z" />
<path fill="none" stroke="#000000" stroke-width="0.500" d="M223.804 61.792C225.152 61.859 226.356 61.316 227.721 61.460C226.787 62.642 226.362 64.413 226.069 64.846C224.811 64.161 224.504 63.513 223.804 61.792Z" />
<path fill="none" stroke="#000000" stroke-width="0.500" d="M227.673 63.121C229.468 63.027 230.949 63.298 232.094 63.573C230.865 64.505 230.319 65.355 229.031 66.212C228.200 65.064 227.939 64.360 227.673 63.121Z" />
<path fill="none" stroke="#000000" stroke-width="0.500" d="M235.797 65.133C234.714 66.400 233.421 66.946 232.196 68.330C231.760 66.787 231.994 65.995 232.146 64.151C233.224 63.919 234.033 64.870 235.797 65.133Z" />
<path fill="none" stroke="#000000" stroke-width="1.000" d="M133.960 9.960C133.960 9.960 145.960 25.800 146.440 27.240" />
</g>
<g id="X_aaaaaaa_output/marina_ext.svg">
</g>
<g id="F_aaaaaab_output/marina_ext.svg">
<g>
<clipPath id="clip_3_output/marina_ext.svg">
  <path d="M-81.440 -20.320C-81.440 -20.320 -55.040 -17.920 -47.360 -13.600C-39.680 -9.280 -3.680 1.760 -3.680 1.760C-3.680 1.760 10.720 10.400 15.520 13.280C20.320 16.160 33.280 18.560 37.600 21.440C41.920 24.320 56.800 27.200 61.120 30.560C65.440 33.920 89.440 43.520 89.440 43.520C89.440 43.520 105.760 43.520 111.040 46.880C116.320 50.240 136.000 53.120 136.000 53.120C136.000 53.120 168.640 61.280 172.480 63.200C176.320 65.120 217.120 69.920 222.880 73.280C228.640 76.640 259.360 83.360 266.560 85.280C273.760 87.200 278.560 85.760 284.800 87.200C291.040 88.640 314.560 85.760 317.440 86.720C320.320 87.680 340.960 90.080 340.960 90.080C340.960 90.080 353.920 89.120 355.840 89.120C357.760 89.120 391.360 89.600 393.760 90.080C392.960 91.840 392.160 93.600 391.360 95.360C391.360 95.360 362.080 95.840 358.240 97.760C354.400 99.680 310.240 110.720 306.880 115.040C303.520 119.360 302.080 124.640 296.320 129.920C290.560 135.200 284.320 136.640 280.000 137.600C275.680 138.560 250.720 141.920 246.400 143.840C242.080 145.760 223.360 148.640 220.480 154.880C217.600 161.120 214.720 345.440 213.280 352.640C211.840 359.840 211.360 497.600 211.360 497.600C211.360 497.600 211.360 497.600 211.360 497.600C210.400 511.840 209.440 526.080 208.480 540.320C203.840 540.000 199.200 539.680 194.560 539.360C193.440 525.440 192.320 511.520 191.200 497.600C191.200 497.600 191.200 497.600 191.200 497.600C191.200 497.600 195.040 356.000 193.600 348.800C192.160 341.600 196.000 303.200 196.000 297.920C196.000 292.640 192.160 188.480 192.160 188.480C192.160 188.480 192.160 188.480 192.160 188.480C192.160 188.480 193.120 182.240 190.240 180.800C187.360 179.360 174.400 176.000 174.400 176.000C174.400 176.000 153.280 190.880 146.080 195.200C138.880 199.520 127.840 205.280 122.080 205.760C116.320 206.240 95.200 195.680 95.200 195.680C95.200 195.680 84.640 184.640 80.800 182.720C76.960 180.800 71.680 178.400 70.240 177.920C68.800 177.440 30.880 164.000 28.000 167.360C25.120 170.720 19.360 180.800 11.680 185.600C4.000 190.400 -9.920 198.080 -11.360 198.560C-12.800 199.040 -29.600 200.480 -31.040 199.520C-32.480 198.560 -48.800 186.560 -48.800 186.560C-48.800 186.560 -64.160 189.440 -68.960 186.080C-73.760 182.720 -85.760 176.480 -86.240 175.040C-86.720 173.600 -91.040 169.760 -91.520 165.920C-92.000 162.080 -90.080 126.560 -90.560 125.120C-91.040 123.680 -92.000 119.840 -93.920 117.920C-95.840 116.000 -104.000 113.120 -104.000 113.120C-105.920 116.480 -107.840 119.840 -109.760 123.200C-100.320 75.360 -90.880 27.520 -81.440 -20.320" />
</clipPath>
<g clip-path="url(#clip_3_output/marina_ext.svg)">
<path fill="#cccccc" stroke="none" d="M0.640 3.680L15.520 0.320L17.440 8.480L16.480 18.080L15.040 21.440L7.500 22.010Z" />
<path fill="none" stroke="#000000" stroke-width="0.500" d="M0.640 3.680L15.520 0.320L17.440 8.480L16.480 18.080L15.040 21.440L7.500 22.010Z" />
<path fill="#cccccc" stroke="none" d="M119.680 42.560L133.120 40.640L136.000 47.360L132.160 58.400L123.530 64.720L117.280 53.120Z" />
<path fill="none" stroke="#000000" stroke-width="0.500" d="M119.680 42.560L133.120 40.640L136.000 47.360L132.160 58.400L123.530 64.720L117.280 53.120Z" />
<path fill="#cccccc" stroke="none" d="M293.700 94.290L287.200 89.600L282.880 82.400L292.960 80.480L302.080 82.880L304.480 89.120Z" />
<path fill="none" stroke="#000000" stroke-width="0.500" d="M293.700 94.290L287.200 89.600L282.880 82.400L292.960 80.480L302.080 82.880L304.480 89.120Z" />
</g>
</g>
</g>
<g id="G_aaaaaab_output/marina_ext.svg">
</g>
<g id="B_aaaaaab_output/marina_ext.svg">
<path fill="none" stroke="inherit" stroke-width="0.350" d="M28.560 0.680C28.560 0.680 54.960 3.080 62.640 7.400C70.320 11.720 106.320 22.760 106.320 22.760C106.320 22.760 120.720 31.400 125.520 34.280C130.320 37.160 143.280 39.560 147.600 42.440C151.920 45.320 166.800 48.200 171.120 51.560C175.440 54.920 199.440 64.520 199.440 64.520C199.440 64.520 215.760 64.520 221.040 67.880C226.320 71.240 246.000 74.120 246.000 74.120C246.000 74.120 278.640 82.280 282.480 84.200C286.320 86.120 327.120 90.920 332.880 94.280C338.640 97.640 369.360 104.360 376.560 106.280C383.760 108.200 388.560 106.760 394.800 108.200C401.040 109.640 424.560 106.760 427.440 107.720C430.320 108.680 450.960 111.080 450.960 111.080C450.960 111.080 463.920 110.120 465.840 110.120C467.760 110.120 501.360 110.600 503.760 111.080" />
<path fill="none" stroke="inherit" stroke-width="0.350" d="M501.360 116.360C501.360 116.360 472.080 116.840 468.240 118.760C464.400 120.680 420.240 131.720 416.880 136.040C413.520 140.360 412.080 145.640 406.320 150.920C400.560 156.200 394.320 157.640 390.000 158.600C385.680 159.560 360.720 162.920 356.400 164.840C352.080 166.760 333.360 169.640 330.480 175.880C327.600 182.120 324.720 366.440 323.280 373.640C321.840 380.840 321.360 518.600 321.360 518.600" />
<path fill="none" stroke="inherit" stroke-width="0.350" d="M321.360 518.600L318.480 561.320" />
<path fill="none" stroke="inherit" stroke-width="0.350" d="M304.560 560.360L301.200 518.600" />
<path fill="none" stroke="inherit" stroke-width="0.350" d="M301.200 518.600C301.200 518.600 305.040 377.000 303.600 369.800C302.160 362.600 306.000 324.200 306.000 318.920C306.000 313.640 302.160 209.480 302.160 209.480" />
<path fill="none" stroke="inherit" stroke-width="0.350" d="M302.160 209.480C302.160 209.480 303.120 203.240 300.240 201.800C297.360 200.360 284.400 197.000 284.400 197.000C284.400 197.000 263.280 211.880 256.080 216.200C248.880 220.520 237.840 226.280 232.080 226.760C226.320 227.240 205.200 216.680 205.200 216.680C205.200 216.680 194.640 205.640 190.800 203.720C186.960 201.800 181.680 199.400 180.240 198.920C178.800 198.440 140.880 185.000 138.000 188.360C135.120 191.720 129.360 201.800 121.680 206.600C114.000 211.400 100.080 219.080 98.640 219.560C97.200 220.040 80.400 221.480 78.960 220.520C77.520 219.560 61.200 207.560 61.200 207.560C61.200 207.560 45.840 210.440 41.040 207.080C36.240 203.720 24.240 197.480 23.760 196.040C23.280 194.600 18.960 190.760 18.480 186.920C18.000 183.080 19.920 147.560 19.440 146.120C18.960 144.680 18.000 140.840 16.080 138.920C14.160 137.000 6.000 134.120 6.000 134.120L0.240 144.200" />
</g>
<g id="I_aaaaaab_output/marina_ext.svg">
<path fill="inherit" stroke="none" d="M28.560 0.680C28.560 0.680 54.960 3.080 62.640 7.400C70.320 11.720 106.320 22.760 106.320 22.760C106.320 22.760 120.720 31.400 125.520 34.280C130.320 37.160 143.280 39.560 147.600 42.440C151.920 45.320 166.800 48.200 171.120 51.560C175.440 54.920 199.440 64.520 199.440 64.520C199.440 64.520 215.760 64.520 221.040 67.880C226.320 71.240 246.000 74.120 246.000 74.120C246.000 74.120 278.640 82.280 282.480 84.200C286.320 86.120 327.120 90.920 332.880 94.280C338.640 97.640 369.360 104.360 376.560 106.280C383.760 108.200 388.560 106.760 394.800 108.200C401.040 109.640 424.560 106.760 427.440 107.720C430.320 108.680 450.960 111.080 450.960 111.080C450.960 111.080 463.920 110.120 465.840 110.120C467.760 110.120 501.360 110.600 503.760 111.080C502.960 112.840 502.160 114.600 501.360 116.360C501.360 116.360 472.080 116.840 468.240 118.760C464.400 120.680 420.240 131.720 416.880 136.040C413.520 140.360 412.080 145.640 406.320 150.920C400.560 156.200 394.320 157.640 390.000 158.600C385.680 159.560 360.720 162.920 356.400 164.840C352.080 166.760 333.360 169.640 330.480 175.880C327.600 182.120 324.720 366.440 323.280 373.640C321.840 380.840 321.360 518.600 321.360 518.600C321.360 518.600 321.360 518.600 321.360 518.600C320.400 532.840 319.440 547.080 318.480 561.320C313.840 561.000 309.200 560.680 304.560 560.360C303.440 546.440 302.320 532.520 301.200 518.600C301.200 518.600 301.200 518.600 301.200 518.600C301.200 518.600 305.040 377.000 303.600 369.800C302.160 362.600 306.000 324.200 306.000 318.920C306.000 313.640 302.160 209.480 302.160 209.480C302.160 209.480 302.160 209.480 302.160 209.480C302.160 209.480 303.120 203.240 300.240 201.800C297.360 200.360 284.400 197.000 284.400 197.000C284.400 197.000 263.280 211.880 256.080 216.200C248.880 220.520 237.840 226.280 232.080 226.760C226.320 227.240 205.200 216.680 205.200 216.680C205.200 216.680 194.640 205.640 190.800 203.720C186.960 201.800 181.680 199.400 180.240 198.920C178.800 198.440 140.880 185.000 138.000 188.360C135.120 191.720 129.360 201.800 121.680 206.600C114.000 211.400 100.080 219.080 98.640 219.560C97.200 220.040 80.400 221.480 78.960 220.520C77.520 219.560 61.200 207.560 61.200 207.560C61.200 207.560 45.840 210.440 41.040 207.080C36.240 203.720 24.240 197.480 23.760 196.040C23.280 194.600 18.960 190.760 18.480 186.920C18.000 183.080 19.920 147.560 19.440 146.120C18.960 144.680 18.000 140.840 16.080 138.920C14.160 137.000 6.000 134.120 6.000 134.120C4.080 137.480 2.160 140.840 0.240 144.200C9.680 96.360 19.120 48.520 28.560 0.680Z" />
</g>
<g id="E_aaaaaab_output/marina_ext.svg">
<path fill="none" stroke="#000000" stroke-width="0.500" d="M32.990 0.663C33.159 2.574 32.268 3.522 32.234 5.490C31.549 3.986 30.049 3.526 29.076 2.028C30.550 1.910 32.073 1.565 32.990 0.663Z" />
<path fill="none" stroke="#000000" stroke-width="0.500" d="M37.500 4.549C35.695 4.811 34.637 4.238 32.822 4.193C34.527 3.306 34.817 2.097 36.594 0.848C36.344 2.206 36.998 3.390 37.500 4.549Z" />
<path fill="none" stroke="#000000" stroke-width="0.500" d="M42.444 3.360C40.989 4.401 39.698 5.264 38.697 6.223C38.915 4.685 38.009 3.447 38.315 1.754C39.076 2.673 40.213 2.767 42.444 3.360Z" />
<path fill="none" stroke="#000000" stroke-width="0.500" d="M46.020 3.792C45.050 4.917 43.206 5.617 42.072 6.972C42.560 5.056 42.792 4.049 42.202 2.637C43.538 2.775 44.811 3.737 46.020 3.792Z" />
<path fill="none" stroke="#000000" stroke-width="0.500" d="M46.449 2.479C48.417 3.696 48.857 4.703 49.892 5.529C48.690 5.760 47.356 6.261 45.534 6.227C46.404 4.731 46.573 4.338 46.449 2.479Z" />
<path fill="none" stroke="#000000" stroke-width="0.500" d="M49.047 4.339C51.173 4.180 52.263 4.883 53.671 5.043C52.863 5.756 52.213 7.255 50.847 7.790C50.428 6.684 50.183 5.286 49.047 4.339Z" />
<path fill="none" stroke="#000000" stroke-width="0.500" d="M53.656 8.669C53.942 7.266 54.258 5.132 54.738 4.064C56.144 5.240 56.364 5.946 57.343 7.444C56.112 8.010 54.785 7.437 53.656 8.669Z" />
<path fill="none" stroke="#000000" stroke-width="0.500" d="M61.335 6.442C60.924 7.867 59.245 8.902 58.991 10.303C59.068 8.896 57.524 8.039 57.345 6.181C59.142 6.426 60.401 6.400 61.335 6.442Z" />
<path fill="none" stroke="#000000" stroke-width="0.500" d="M62.287 11.385C62.259 9.873 61.553 7.889 62.143 6.704C62.832 7.771 64.216 8.691 65.114 8.962C64.552 9.990 62.625 10.481 62.287 11.385Z" />
<path fill="none" stroke="#000000" stroke-width="0.500" d="M66.372 8.371C67.148 9.460 68.318 10.894 68.603 12.141C67.094 11.768 65.923 11.996 65.262 12.354C65.548 10.520 65.818 10.176 66.372 8.371Z" />
<path fill="none" stroke="#000000" stroke-width="0.500" d="M72.057 10.955C71.970 11.988 71.026 13.697 71.052 14.433C69.712 13.958 69.406 13.349 68.189 11.342C68.952 11.228 70.919 11.320 72.057 10.955Z" />
<path fill="none" stroke="#000000" stroke-width="0.500" d="M73.545 11.269C74.257 12.937 75.022 13.396 76.677 14.573C75.166 15.275 74.442 15.044 72.898 15.226C72.237 14.010 73.340 12.673 73.545 11.269Z" />
<path fill="none" stroke="#000000" stroke-width="0.500" d="M76.460 16.707C76.555 15.374 76.631 14.347 77.354 12.438C78.305 13.523 79.013 15.064 79.520 15.420C78.550 15.657 77.279 16.427 76.460 16.707Z" />
<path fill="none" stroke="#000000" stroke-width="0.500" d="M80.085 14.343C81.018 14.847 82.439 15.676 84.518 16.025C83.412 16.922 81.966 17.509 80.312 18.421C80.819 17.741 80.364 16.292 80.085 14.343Z" />
<path fill="none" stroke="#000000" stroke-width="0.500" d="M82.716 18.113C84.429 17.300 85.243 15.994 87.219 15.798C86.645 17.503 86.763 18.023 86.170 19.720C85.668 19.252 84.141 18.885 82.716 18.113Z" />
<path fill="none" stroke="#000000" stroke-width="0.500" d="M91.492 19.664C89.905 19.443 88.660 20.357 87.352 20.746C87.935 19.772 87.775 17.967 88.931 16.975C89.534 17.760 90.214 18.246 91.492 19.664Z" />
<path fill="none" stroke="#000000" stroke-width="0.500" d="M90.395 21.429C91.649 19.482 92.461 18.552 93.432 18.280C93.618 19.085 93.856 20.404 94.574 21.914C93.442 21.623 91.952 21.577 90.395 21.429Z" />
<path fill="none" stroke="#000000" stroke-width="0.500" d="M95.988 23.257C95.780 21.784 95.286 20.453 95.608 18.806C96.710 19.955 98.442 20.520 98.686 21.618C98.344 22.584 97.200 22.828 95.988 23.257Z" />
<path fill="none" stroke="#000000" stroke-width="0.500" d="M99.876 24.694C99.270 23.278 99.908 22.139 99.264 20.794C100.314 21.437 101.322 22.226 102.787 22.878C101.743 22.835 100.691 24.251 99.876 24.694Z" />
<path fill="none" stroke="#000000" stroke-width="0.500" d="M103.941 21.349C104.744 22.759 105.542 24.360 106.144 25.488C105.414 24.918 104.214 24.937 102.598 25.142C103.598 23.603 103.759 22.408 103.941 21.349Z" />
<path fill="none" stroke="#000000" stroke-width="0.500" d="M108.952 23.325C108.914 23.994 109.308 26.041 109.330 26.904C108.699 26.779 106.885 26.415 106.080 25.811C106.996 24.977 108.205 23.435 108.952 23.325Z" />
<path fill="none" stroke="#000000" stroke-width="0.500" d="M113.456 25.139C113.261 27.461 112.502 28.857 112.183 29.626C111.690 28.570 110.464 27.699 109.934 26.831C110.600 26.405 112.224 25.635 113.456 25.139Z" />
<path fill="none" stroke="#000000" stroke-width="0.500" d="M116.418 27.625C116.134 28.813 116.026 29.973 116.357 31.569C115.378 31.167 114.615 30.680 113.474 29.835C113.859 29.207 115.075 28.336 116.418 27.625Z" />
<path fill="none" stroke="#000000" stroke-width="0.500" d="M118.642 33.695C118.060 32.573 117.139 31.301 116.252 30.562C117.809 30.634 119.284 30.633 120.857 30.192C119.537 31.519 119.438 32.345 118.642 33.695Z" />
<path fill="none" stroke="#000000" stroke-width="0.500" d="M122.326 35.477C121.556 34.582 120.991 33.368 119.590 32.127C121.269 31.945 122.468 32.643 123.961 32.787C123.144 33.603 122.589 35.417 122.326 35.477Z" />
<path fill="none" stroke="#000000" stroke-width="0.500" d="M128.357 35.446C127.026 36.229 124.984 36.926 124.818 37.811C123.971 36.453 124.131 35.462 124.452 33.594C125.327 34.927 126.408 35.183 128.357 35.446Z" />
<path fill="none" stroke="#000000" stroke-width="0.500" d="M128.153 40.025C128.126 38.770 127.590 36.997 127.852 35.539C129.226 36.300 129.958 36.175 131.124 37.040C130.548 37.695 129.472 39.261 128.153 40.025Z" />
<path fill="none" stroke="#000000" stroke-width="0.500" d="M130.722 40.970C131.936 39.343 131.391 38.132 132.152 36.612C133.360 37.973 134.409 38.280 134.477 39.436C133.842 39.905 132.147 40.319 130.722 40.970Z" />
<path fill="none" stroke="#000000" stroke-width="0.500" d="M139.254 38.438C138.087 39.932 137.409 40.928 136.257 42.292C135.639 41.605 135.423 39.821 134.894 38.941C135.994 38.859 137.456 38.938 139.254 38.438Z" />
<path fill="none" stroke="#000000" stroke-width="0.500" d="M139.527 39.087C141.101 39.820 141.527 40.876 142.568 41.726C141.576 42.422 140.660 42.216 138.779 43.250C139.611 41.265 139.332 39.615 139.527 39.087Z" />
<path fill="none" stroke="#000000" stroke-width="0.500" d="M142.419 44.201C142.908 42.556 143.251 41.201 144.857 39.854C144.546 41.350 145.859 42.923 145.879 43.686C145.494 43.649 143.324 43.789 142.419 44.201Z" />
<path fill="none" stroke="#000000" stroke-width="0.500" d="M146.052 45.425C146.363 43.832 146.962 43.157 147.940 42.021C149.098 42.886 148.931 44.017 150.309 44.761C148.489 45.049 146.945 45.644 146.052 45.425Z" />
<path fill="none" stroke="#000000" stroke-width="0.500" d="M151.521 47.943C150.765 47.096 150.703 45.931 149.964 43.633C150.681 44.463 152.142 44.542 153.251 45.141C152.964 46.586 152.120 47.668 151.521 47.943Z" />
<path fill="none" stroke="#000000" stroke-width="0.500" d="M153.131 48.071C154.264 47.099 155.131 45.400 156.486 45.522C156.119 46.237 157.073 47.470 157.342 48.898C155.914 48.306 154.559 48.394 153.131 48.071Z" />
<path fill="none" stroke="#000000" stroke-width="0.500" d="M157.676 49.905C158.354 48.475 157.738 47.714 159.074 46.061C159.099 47.181 160.846 47.908 161.582 49.472C159.899 49.151 158.222 50.192 157.676 49.905Z" />
<path fill="none" stroke="#000000" stroke-width="0.500" d="M165.852 48.789C164.760 49.791 163.474 50.636 162.069 52.171C161.613 50.674 161.895 49.651 161.712 47.652C162.953 48.156 163.995 49.227 165.852 48.789Z" />
<path fill="none" stroke="#000000" stroke-width="0.500" d="M164.444 51.717C165.868 50.860 165.918 49.954 167.331 49.012C167.899 49.963 168.340 51.467 168.404 51.880C167.065 51.893 165.917 51.608 164.444 51.717Z" />
<path fill="none" stroke="#000000" stroke-width="0.500" d="M170.384 54.481C169.424 53.400 169.467 52.150 169.190 50.397C169.816 51.460 170.856 51.475 172.651 52.143C171.176 52.611 170.670 53.637 170.384 54.481Z" />
<path fill="none" stroke="#000000" stroke-width="0.500" d="M171.591 53.878C172.719 53.765 174.516 53.829 176.040 52.751C175.506 54.174 174.883 55.626 174.695 56.599C173.896 55.694 171.993 54.718 171.591 53.878Z" />
<path fill="none" stroke="#000000" stroke-width="0.500" d="M176.942 53.892C178.130 55.910 178.851 56.786 178.889 57.839C178.234 57.469 176.413 57.887 175.141 57.599C176.251 56.622 176.786 54.824 176.942 53.892Z" />
<path fill="none" stroke="#000000" stroke-width="0.500" d="M181.415 60.168C180.924 59.596 180.194 58.517 178.504 57.108C180.323 56.930 181.469 57.066 182.616 56.729C182.867 58.301 181.998 59.155 181.415 60.168Z" />
<path fill="none" stroke="#000000" stroke-width="0.500" d="M186.045 62.144C185.128 61.159 183.369 60.571 182.800 59.680C183.329 59.719 184.557 59.129 185.913 58.247C186.297 59.104 185.943 60.986 186.045 62.144Z" />
<path fill="none" stroke="#000000" stroke-width="0.500" d="M186.737 60.018C188.335 60.829 189.406 60.950 190.535 60.652C189.654 61.487 189.217 62.938 188.001 63.296C187.488 62.443 186.775 61.383 186.737 60.018Z" />
<path fill="none" stroke="#000000" stroke-width="0.500" d="M193.473 64.965C192.583 63.939 191.096 64.251 189.998 63.554C190.737 62.722 191.816 62.089 192.765 61.312C193.560 62.482 193.914 63.583 193.473 64.965Z" />
<path fill="none" stroke="#000000" stroke-width="0.500" d="M196.449 67.376C195.464 66.291 195.043 64.759 193.793 63.470C194.785 63.618 195.876 63.112 197.295 63.689C196.907 64.200 197.197 65.836 196.449 67.376Z" />
<path fill="none" stroke="#000000" stroke-width="0.500" d="M197.533 67.438C198.671 66.515 198.594 64.671 199.415 63.789C200.418 65.362 201.394 65.695 201.699 67.498C200.160 67.097 199.519 67.321 197.533 67.438Z" />
<path fill="none" stroke="#000000" stroke-width="0.500" d="M202.472 64.442C203.287 65.551 205.179 66.310 206.263 66.897C205.205 67.570 203.790 67.634 201.875 68.310C202.131 67.455 202.073 65.405 202.472 64.442Z" />
<path fill="none" stroke="#000000" stroke-width="0.500" d="M206.539 68.773C206.449 67.737 206.689 66.422 206.687 64.163C207.612 65.021 208.800 66.263 209.597 67.045C208.894 67.830 207.762 68.570 206.539 68.773Z" />
<path fill="none" stroke="#000000" stroke-width="0.500" d="M210.623 64.784C211.606 65.965 212.647 66.674 213.725 68.406C212.589 68.060 211.537 68.826 210.150 68.356C210.679 67.236 210.198 66.121 210.623 64.784Z" />
<path fill="none" stroke="#000000" stroke-width="0.500" d="M218.413 68.687C216.586 69.116 214.994 69.318 213.409 69.720C214.353 67.931 214.454 66.565 215.104 65.772C215.623 66.608 216.438 67.299 218.413 68.687Z" />
<path fill="none" stroke="#000000" stroke-width="0.500" d="M219.843 71.559C218.602 69.743 217.851 68.998 217.143 68.123C218.339 67.414 219.681 67.811 221.325 67.571C220.998 68.291 219.981 69.617 219.843 71.559Z" />
<path fill="none" stroke="#000000" stroke-width="0.500" d="M224.305 67.841C224.424 69.205 224.539 70.548 224.612 72.438C223.245 71.842 221.923 71.414 220.743 70.507C221.363 69.461 223.191 68.566 224.305 67.841Z" />
<path fill="none" stroke="#000000" stroke-width="0.500" d="M225.031 73.083C225.216 71.342 226.377 71.224 227.084 69.269C227.347 70.211 228.226 71.401 228.818 72.895C226.924 73.029 225.912 73.429 225.031 73.083Z" />
<path fill="none" stroke="#000000" stroke-width="0.500" d="M228.281 73.661C228.923 72.959 229.829 71.775 230.963 70.797C231.757 71.833 231.705 73.343 232.162 74.897C231.044 74.114 229.631 73.516 228.281 73.661Z" />
<path fill="none" stroke="#000000" stroke-width="0.500" d="M233.567 71.710C234.385 72.509 235.618 73.145 236.553 74.048C236.236 74.738 234.048 74.929 232.780 75.394C233.099 74.543 233.059 72.526 233.567 71.710Z" />
<path fill="none" stroke="#000000" stroke-width="0.500" d="M235.902 74.881C237.662 73.557 238.350 73.672 240.397 72.442C239.980 74.170 239.537 75.304 239.025 76.645C237.951 76.478 236.905 75.789 235.902 74.881Z" />
<path fill="none" stroke="#000000" stroke-width="0.500" d="M240.806 76.603C241.259 76.016 242.066 74.505 241.868 72.950C243.148 73.901 244.119 74.878 244.378 75.829C242.955 76.093 241.329 76.847 240.806 76.603Z" />
<path fill="none" stroke="#000000" stroke-width="0.500" d="M246.529 73.312C247.134 75.308 247.927 76.241 247.664 78.214C246.549 77.460 245.714 76.977 244.243 76.574C245.549 75.877 245.827 75.138 246.529 73.312Z" />
<path fill="none" stroke="#000000" stroke-width="0.500" d="M250.589 74.305C251.326 75.433 251.765 77.442 251.604 78.524C250.953 78.386 249.548 78.295 247.834 77.453C248.588 76.185 250.413 75.865 250.589 74.305Z" />
<path fill="none" stroke="#000000" stroke-width="0.500" d="M253.202 75.365C254.617 76.741 255.709 77.972 256.500 78.989C255.467 78.687 254.479 79.506 252.801 80.175C252.682 78.035 253.121 77.478 253.202 75.365Z" />
<path fill="none" stroke="#000000" stroke-width="0.500" d="M261.016 79.264C258.574 79.476 257.759 79.854 256.333 80.729C256.699 79.671 256.782 77.841 257.101 77.100C258.153 77.344 259.218 78.895 261.016 79.264Z" />
<path fill="none" stroke="#000000" stroke-width="0.500" d="M264.243 79.501C263.318 80.076 261.886 81.596 261.007 82.112C260.725 80.911 260.309 79.221 260.753 78.418C261.917 78.118 263.246 78.901 264.243 79.501Z" />
<path fill="none" stroke="#000000" stroke-width="0.500" d="M267.827 82.741C265.933 82.522 265.203 81.816 263.537 81.271C264.406 80.443 265.389 79.777 266.914 79.276C267.176 80.313 266.756 81.529 267.827 82.741Z" />
<path fill="none" stroke="#000000" stroke-width="0.500" d="M270.023 79.501C270.390 81.234 271.081 82.415 272.011 83.557C270.251 83.369 269.339 82.896 267.943 83.265C268.653 82.228 269.075 80.986 270.023 79.501Z" />
<path fill="none" stroke="#000000" stroke-width="0.500" d="M271.471 80.853C273.038 82.026 274.321 82.375 275.678 82.318C274.538 83.521 273.991 84.774 273.295 85.276C272.662 84.355 272.210 82.500 271.471 80.853Z" />
<path fill="none" stroke="#000000" stroke-width="0.500" d="M279.610 85.059C278.006 84.802 276.621 85.720 275.065 85.579C275.980 83.769 276.645 83.123 277.829 81.778C278.423 83.501 279.076 84.216 279.610 85.059Z" />
<path fill="none" stroke="#000000" stroke-width="0.500" d="M280.918 83.143C281.747 84.751 282.997 85.316 283.397 86.707C281.838 86.881 280.355 86.690 279.018 86.359C280.248 85.381 281.065 84.152 280.918 83.143Z" />
<path fill="none" stroke="#000000" stroke-width="0.500" d="M285.247 88.744C284.908 88.162 283.370 86.578 283.246 85.302C284.654 85.427 285.429 86.035 286.653 85.814C286.194 87.202 285.764 88.127 285.247 88.744Z" />
<path fill="none" stroke="#000000" stroke-width="0.500" d="M287.549 90.197C288.310 88.392 287.946 86.380 287.616 85.743C288.820 86.563 290.215 87.318 291.011 87.264C290.285 88.748 288.770 89.097 287.549 90.197Z" />
<path fill="none" stroke="#000000" stroke-width="0.500" d="M295.565 87.345C294.364 88.743 293.467 89.053 292.319 90.970C291.979 88.873 291.825 88.536 290.815 87.021C292.851 87.155 293.631 87.134 295.565 87.345Z" />
<path fill="none" stroke="#000000" stroke-width="0.500" d="M298.160 90.648C296.882 90.512 295.481 88.725 294.566 88.018C296.016 88.290 297.333 87.434 297.867 87.259C297.956 88.619 298.040 89.478 298.160 90.648Z" />
<path fill="none" stroke="#000000" stroke-width="0.500" d="M298.512 90.325C299.436 88.780 300.659 88.293 302.227 87.297C302.395 88.447 302.539 89.909 302.230 90.709C300.748 90.453 299.466 90.466 298.512 90.325Z" />
<path fill="none" stroke="#000000" stroke-width="0.500" d="M302.914 88.693C304.515 88.860 305.653 88.619 306.547 88.971C306.181 90.486 305.270 91.669 304.808 92.022C303.633 91.484 302.950 89.914 302.914 88.693Z" />
<path fill="none" stroke="#000000" stroke-width="0.500" d="M306.872 88.979C308.204 89.577 309.786 90.090 311.011 90.089C310.209 91.438 308.569 92.449 308.167 92.761C307.325 91.773 307.899 89.971 306.872 88.979Z" />
<path fill="none" stroke="#000000" stroke-width="0.500" d="M310.373 90.551C311.519 90.644 312.559 89.925 314.875 90.049C313.841 90.958 313.470 91.946 313.286 93.894C312.174 92.889 311.187 92.390 310.373 90.551Z" />
<path fill="none" stroke="#000000" stroke-width="0.500" d="M314.467 91.669C316.175 90.903 317.731 91.329 318.397 90.459C318.390 91.877 317.609 93.643 316.918 94.268C316.231 93.732 315.640 92.387 314.467 91.669Z" />
<path fill="none" stroke="#000000" stroke-width="0.500" d="M322.386 90.802C321.968 92.007 321.290 93.235 321.596 95.099C320.867 94.101 319.579 93.246 318.491 92.975C319.246 92.066 320.879 91.130 322.386 90.802Z" />
<path fill="none" stroke="#000000" stroke-width="0.500" d="M327.071 92.795C326.098 93.452 324.708 94.834 324.241 96.294C324.249 94.811 323.781 93.450 322.857 91.639C324.114 92.684 325.373 92.876 327.071 92.795Z" />
<path fill="none" stroke="#000000" stroke-width="0.500" d="M325.739 93.948C327.717 93.325 329.186 93.325 330.009 92.925C329.955 93.947 329.155 95.451 328.927 96.591C327.843 96.035 326.885 94.824 325.739 93.948Z" />
<path fill="none" stroke="#000000" stroke-width="0.500" d="M333.979 97.523C332.419 96.833 331.744 96.258 330.124 96.070C331.268 95.212 332.117 94.420 332.818 92.970C333.363 94.748 333.380 95.947 333.979 97.523Z" />
<path fill="none" stroke="#000000" stroke-width="0.500" d="M333.603 96.917C334.849 96.377 335.832 96.176 336.954 95.046C337.140 96.247 337.521 98.075 336.987 98.708C336.243 98.408 335.331 98.059 333.603 96.917Z" />
<path fill="none" stroke="#000000" stroke-width="0.500" d="M341.271 97.052C341.321 98.316 340.266 99.559 339.598 100.511C339.497 99.845 338.945 98.922 338.017 98.154C339.718 97.257 340.709 97.143 341.271 97.052Z" />
<path fill="none" stroke="#000000" stroke-width="0.500" d="M345.730 100.386C344.775 100.699 343.178 100.788 341.855 101.099C342.382 99.767 342.467 98.962 343.213 97.350C344.383 98.206 345.356 99.672 345.730 100.386Z" />
<path fill="none" stroke="#000000" stroke-width="0.500" d="M346.188 103.334C346.315 101.439 345.975 99.808 346.724 98.258C347.901 99.472 348.957 99.662 349.266 100.355C349.144 101.295 347.182 102.280 346.188 103.334Z" />
<path fill="none" stroke="#000000" stroke-width="0.500" d="M350.207 103.727C350.276 102.962 350.884 100.832 350.201 99.102C351.241 100.811 352.894 101.315 353.381 101.744C352.418 102.323 351.441 103.298 350.207 103.727Z" />
<path fill="none" stroke="#000000" stroke-width="0.500" d="M352.872 103.630C353.950 102.258 355.206 101.392 355.934 100.157C355.977 101.839 356.273 103.237 356.771 104.383C355.899 103.769 354.128 103.992 352.872 103.630Z" />
<path fill="none" stroke="#000000" stroke-width="0.500" d="M361.550 104.423C359.733 105.221 358.252 104.677 357.259 104.886C357.696 103.862 358.858 102.744 359.280 101.583C360.362 102.799 360.837 104.234 361.550 104.423Z" />
<path fill="none" stroke="#000000" stroke-width="0.500" d="M361.264 103.105C363.007 103.152 363.856 103.693 365.396 104.333C364.702 105.069 363.495 105.878 362.356 106.924C362.311 106.105 361.989 104.455 361.264 103.105Z" />
<path fill="none" stroke="#000000" stroke-width="0.500" d="M364.258 106.930C365.653 105.205 366.436 104.923 367.327 102.832C368.345 104.457 368.753 105.694 369.321 106.886C367.410 106.749 366.282 106.451 364.258 106.930Z" />
<path fill="none" stroke="#000000" stroke-width="0.500" d="M371.491 104.420C371.521 106.297 371.829 106.829 371.813 108.369C370.914 108.063 370.092 107.782 368.979 106.624C369.824 106.089 370.356 105.098 371.491 104.420Z" />
<path fill="none" stroke="#000000" stroke-width="0.500" d="M377.315 108.162C375.392 108.297 373.838 108.543 373.006 109.481C373.573 107.950 373.703 106.207 374.077 105.172C375.868 106.592 376.401 106.800 377.315 108.162Z" />
<path fill="none" stroke="#000000" stroke-width="0.500" d="M377.898 106.679C378.594 107.038 380.232 107.916 381.386 108.985C380.001 109.385 378.816 109.587 377.201 109.726C377.448 109.555 377.859 107.471 377.898 106.679Z" />
<path fill="none" stroke="#000000" stroke-width="0.500" d="M382.557 111.437C381.630 110.252 380.934 109.226 381.100 107.554C382.044 108.282 383.283 108.561 384.349 108.182C384.018 109.774 383.119 110.300 382.557 111.437Z" />
<path fill="none" stroke="#000000" stroke-width="0.500" d="M384.516 108.408C386.585 108.030 387.630 108.356 389.219 108.421C388.087 109.386 387.258 110.267 386.409 111.149C386.277 110.346 385.644 109.379 384.516 108.408Z" />
<path fill="none" stroke="#000000" stroke-width="0.500" d="M389.462 107.147C391.082 107.793 392.311 109.282 393.209 110.707C391.722 110.843 390.650 111.061 389.185 110.711C389.675 109.897 389.586 108.801 389.462 107.147Z" />
<path fill="none" stroke="#000000" stroke-width="0.500" d="M397.036 108.961C396.137 110.379 394.597 111.102 394.011 112.984C393.792 110.600 393.161 109.952 392.990 108.286C394.674 108.987 395.788 109.192 397.036 108.961Z" />
<path fill="none" stroke="#000000" stroke-width="0.500" d="M400.282 112.665C398.391 112.147 397.387 110.623 396.734 110.218C397.469 110.047 399.114 109.295 399.533 108.807C399.905 109.858 399.919 111.268 400.282 112.665Z" />
<path fill="none" stroke="#000000" stroke-width="0.500" d="M402.767 107.832C403.403 108.875 403.673 110.868 404.943 111.733C402.851 111.945 402.215 111.806 401.160 111.578C401.453 109.902 402.422 108.988 402.767 107.832Z" />
<path fill="none" stroke="#000000" stroke-width="0.500" d="M408.017 108.266C407.920 110.014 407.809 111.966 406.842 113.046C406.379 111.643 405.681 110.567 404.691 110.030C405.656 109.778 406.756 109.417 408.017 108.266Z" />
<path fill="none" stroke="#000000" stroke-width="0.500" d="M410.324 112.162C409.603 111.259 409.217 110.232 409.463 108.657C411.045 109.112 411.250 109.353 412.562 110.415C411.785 111.170 411.421 111.847 410.324 112.162Z" />
<path fill="none" stroke="#000000" stroke-width="0.500" d="M415.837 111.811C414.804 111.474 413.474 110.516 412.431 110.215C413.311 109.809 414.460 108.977 415.540 108.530C415.652 109.599 416.334 110.930 415.837 111.811Z" />
<path fill="none" stroke="#000000" stroke-width="0.500" d="M417.801 107.299C418.904 108.191 420.283 109.264 420.807 110.858C420.276 110.972 418.583 110.663 417.701 111.675C417.329 109.886 417.053 108.814 417.801 107.299Z" />
<path fill="none" stroke="#000000" stroke-width="0.500" d="M423.398 107.659C423.969 109.063 423.501 109.876 423.937 111.181C422.644 111.351 421.736 110.752 420.937 109.949C421.598 108.624 422.079 107.972 423.398 107.659Z" />
<path fill="none" stroke="#000000" stroke-width="0.500" d="M427.267 107.196C427.901 108.060 428.157 110.159 429.038 111.348C426.994 111.356 426.436 110.608 424.229 110.178C425.401 108.829 426.027 108.228 427.267 107.196Z" />
<path fill="none" stroke="#000000" stroke-width="0.500" d="M430.208 107.676C431.633 108.750 431.759 110.331 432.768 112.012C431.714 111.692 429.772 111.665 429.442 111.439C429.546 109.655 429.962 108.851 430.208 107.676Z" />
<path fill="none" stroke="#000000" stroke-width="0.500" d="M437.003 109.473C436.367 111.203 435.270 111.912 433.813 112.931C433.763 112.080 433.606 111.059 433.144 109.408C434.257 109.707 435.828 109.802 437.003 109.473Z" />
<path fill="none" stroke="#000000" stroke-width="0.500" d="M436.693 111.482C437.704 110.684 438.902 110.455 440.242 109.811C440.426 111.053 439.547 112.003 439.152 113.214C438.443 113.099 437.000 112.261 436.693 111.482Z" />
<path fill="none" stroke="#000000" stroke-width="0.500" d="M445.076 112.446C443.448 113.037 441.952 113.404 440.472 113.811C441.115 112.916 441.935 110.932 442.491 110.096C443.357 110.696 443.952 111.924 445.076 112.446Z" />
<path fill="none" stroke="#000000" stroke-width="0.500" d="M444.420 111.424C445.876 111.407 447.011 111.528 448.478 111.012C448.495 111.829 447.366 113.855 447.239 114.795C446.403 113.798 445.072 112.143 444.420 111.424Z" />
<path fill="none" stroke="#000000" stroke-width="0.500" d="M448.503 114.907C448.864 113.292 449.916 112.082 450.169 110.325C450.739 111.009 451.529 112.846 453.046 113.033C451.224 113.329 450.499 114.377 448.503 114.907Z" />
<path fill="none" stroke="#000000" stroke-width="0.500" d="M453.076 114.743C453.375 113.563 453.807 112.036 453.993 110.317C455.364 112.041 455.391 112.470 456.284 113.476C455.112 113.990 454.622 114.306 453.076 114.743Z" />
<path fill="none" stroke="#000000" stroke-width="0.500" d="M459.510 110.163C459.497 112.233 459.208 113.337 459.341 115.063C458.358 114.373 457.721 113.664 456.842 112.679C457.416 111.824 458.543 110.667 459.510 110.163Z" />
<path fill="none" stroke="#000000" stroke-width="0.500" d="M462.809 114.738C461.906 113.041 461.180 111.984 460.714 110.642C462.210 110.411 463.202 111.430 464.774 111.579C463.545 112.978 462.839 113.805 462.809 114.738Z" />
<path fill="none" stroke="#000000" stroke-width="0.500" d="M468.774 112.556C467.713 112.384 466.218 113.135 465.344 113.599C465.462 112.707 465.819 111.342 466.158 110.104C466.633 110.823 468.377 111.799 468.774 112.556Z" />
<path fill="none" stroke="#000000" stroke-width="0.500" d="M469.006 113.574C469.122 112.411 469.856 111.166 470.337 109.759C471.153 110.600 471.576 111.877 472.034 113.250C470.981 113.036 469.598 113.048 469.006 113.574Z" />
<path fill="none" stroke="#000000" stroke-width="0.500" d="M476.739 113.132C475.418 112.685 474.232 113.800 472.502 114.068C473.238 112.529 473.956 111.096 474.243 110.291C475.617 111.176 476.573 111.850 476.739 113.132Z" />
<path fill="none" stroke="#000000" stroke-width="0.500" d="M480.866 113.924C479.159 114.021 477.277 113.353 476.192 112.196C477.616 112.232 477.875 110.874 479.237 110.011C479.188 111.365 480.275 112.533 480.866 113.924Z" />
<path fill="none" stroke="#000000" stroke-width="0.500" d="M480.576 111.760C482.128 111.211 483.571 110.719 484.386 110.603C484.281 111.736 483.641 113.411 482.947 114.231C481.818 113.458 481.497 112.274 480.576 111.760Z" />
<path fill="none" stroke="#000000" stroke-width="0.500" d="M485.025 110.424C486.076 111.259 487.862 111.810 489.591 112.647C487.721 112.716 487.186 113.798 485.723 114.759C485.656 113.371 485.510 111.281 485.025 110.424Z" />
<path fill="none" stroke="#000000" stroke-width="0.500" d="M493.062 111.122C492.289 112.787 490.920 113.664 490.357 115.045C489.694 113.860 489.419 112.621 488.596 111.288C490.070 111.176 491.186 111.240 493.062 111.122Z" />
<path fill="none" stroke="#000000" stroke-width="0.500" d="M494.718 114.851C493.676 114.259 493.055 112.456 492.705 111.072C493.670 110.941 495.606 111.769 496.367 111.557C496.659 113.164 495.121 114.315 494.718 114.851Z" />
<path fill="none" stroke="#000000" stroke-width="0.500" d="M496.812 113.135C498.086 112.270 498.496 111.367 500.392 110.956C499.865 112.421 499.450 113.286 500.354 114.783C498.700 114.110 497.475 113.206 496.812 113.135Z" />
<path fill="none" stroke="#000000" stroke-width="0.500" d="M500.664 113.984C501.756 112.567 502.356 112.025 502.943 110.547C504.186 111.808 503.977 113.394 503.957 114.752C502.944 114.478 501.471 113.665 500.664 113.984Z" />
<path fill="none" stroke="#000000" stroke-width="1.000" stroke-dasharray="6.000,6.000" stroke-dashoffset="0.000" d="M322.360 520.600L319.480 563.320" />
<path fill="none" stroke="#000000" stroke-width="1.000" d="M502.360 118.360C502.360 118.360 473.080 118.840 469.240 120.760C465.400 122.680 421.240 133.720 417.880 138.040C414.520 142.360 413.080 147.640 407.320 152.920C401.560 158.200 395.320 159.640 391.000 160.600C386.680 161.560 361.720 164.920 357.400 166.840C353.080 168.760 334.360 171.640 331.480 177.880C328.600 184.120 325.720 368.440 324.280 375.640C322.840 382.840 322.360 520.600 322.360 520.600" />
<path fill="none" stroke="#000000" stroke-width="1.000" d="M302.200 520.600C302.200 520.600 306.040 379.000 304.600 371.800C303.160 364.600 307.000 326.200 307.000 320.920C307.000 315.640 303.160 211.480 303.160 211.480" />
<path fill="none" stroke="#000000" stroke-width="1.000" d="M303.160 211.480C303.160 211.480 304.120 205.240 301.240 203.800C298.360 202.360 285.400 199.000 285.400 199.000C285.400 199.000 264.280 213.880 257.080 218.200C249.880 222.520 238.840 228.280 233.080 228.760C227.320 229.240 206.200 218.680 206.200 218.680C206.200 218.680 195.640 207.640 191.800 205.720C187.960 203.800 182.680 201.400 181.240 200.920C179.800 200.440 141.880 187.000 139.000 190.360C136.120 193.720 130.360 203.800 122.680 208.600C115.000 213.400 101.080 221.080 99.640 221.560C98.200 222.040 81.400 223.480 79.960 222.520C78.520 221.560 62.200 209.560 62.200 209.560C62.200 209.560 46.840 212.440 42.040 209.080C37.240 205.720 25.240 199.480 24.760 198.040C24.280 196.600 19.960 192.760 19.480 188.920C19.000 185.080 20.920 149.560 20.440 148.120C19.960 146.680 19.000 142.840 17.080 140.920C15.160 139.000 7.000 136.120 7.000 136.120L1.240 146.200" />
<path fill="none" stroke="#000000" stroke-width="1.000" stroke-dasharray="6.000,6.000" stroke-dashoffset="0.000" d="M305.560 562.360L302.200 520.600" />
</g>
<g id="X_aaaaaab_output/marina_ext.svg">
</g>
<clipPath id="clip_viewBox">
<path d="M-64.076 -238.523L497.617 -238.523L497.617 382.170L-64.076 382.170z" />
</clipPath>
</defs>
<g transform="scale(1,-1)" fill="#000000" stroke="#000000" stroke-linecap="round" stroke-linejoin="round" stroke-miterlimit="10" fill-rule="evenodd" clip-rule="evenodd" clip-path="url(#clip_viewBox)">
<g fill="#cccccc">
<use x="-15.810" y="-79.216" xlink:href="#I_aaaaaaa_output/marina_ext.svg" />
</g>
<use x="63.190" y="-171.216" xlink:href="#F_aaaaaaa_output/marina_ext.svg" />
<use x="-15.810" y="-79.216" xlink:href="#E_aaaaaaa_output/marina_ext.svg" />
<g fill="#cccccc">
<use x="-34.729" y="-208.176" xlink:href="#I_aaaaaab_output/marina_ext.svg" />
</g>
<use x="75.271" y="-187.176" xlink:href="#F_aaaaaab_output/marina_ext.svg" />
<use x="-35.729" y="-210.176" xlink:href="#E_aaaaaab_output/marina_ext.svg" />
</g>
</svg>
